<svg xmlns="http://www.w3.org/2000/svg" viewBox="0 0 22.13 62.3" xmlns:v="https://vecta.io/nano"><path d="M11.12 15.2a3.86 3.86 0 0 1-3.8-3.8 3.93 3.93 0 0 1 3.8-3.8 3.8 3.8 0 1 1 0 7.6zm0-6.8a3 3 0 1 0 0 6 3 3 0 0 0 0-6zm0-7.6a19.09 19.09 0 0 1 2 .2l.6 2.2a1 1 0 0 0 1 .9h.4l.2-.1 1.5-1a10.44 10.44 0 0 1 2.9 3l-.6 1.1-.1.2v.2a1.21 1.21 0 0 0 .3.9.85.85 0 0 0 .6.3l1.1.3a10.87 10.87 0 0 1 0 4.4l-1.5.6h-.2a1.07 1.07 0 0 0-.7 1v.5l.1.1.7 1.5a11.84 11.84 0 0 1-3.3 3l-1.2-.8h-.7a1 1 0 0 0-1 .9l-.4 1.4a5.84 5.84 0 0 1-1.8.2 17.91 17.91 0 0 1-2.4-.2l-.3-1.4V20l-.2-.2-.1-.1a1.15 1.15 0 0 0-.9-.5 1.07 1.07 0 0 0-.6.2h0l-1.1.7a11.84 11.84 0 0 1-3-3.3l.5-1.1a1.26 1.26 0 0 0-.5-1.6h-.1l-1-.3a16.2 16.2 0 0 1 0-4.4l1.1-.3a1.15 1.15 0 0 0 .9-.6 1.09 1.09 0 0 0 .1-.5.73.73 0 0 0-.2-.6l-1-1.3a10.5 10.5 0 0 1 3.1-3.2l1.4.8.2.1h.3a1 1 0 0 0 1-.9l.5-1.6a4.94 4.94 0 0 1 2.4-.5m0-.8a11.15 11.15 0 0 0-2.7.3l-.2.2-.6 2.1a.32.32 0 0 1-.3.3h-.1l-1.9-1-.2.1a11.15 11.15 0 0 0-3.7 3.8l-.1.2 1 1.6a.19.19 0 0 1 0 .3c0 .1-.1.2-.3.2l-1.8.5v.2a14.56 14.56 0 0 0 0 5.1v.2l1.5.5a.48.48 0 0 1 .2.6l-.7 1.5.1.2a12.72 12.72 0 0 0 3.5 3.8l.2.2 1.6-1c.2-.1.2-.1.3-.1s.3.2.5.4l.4 1.9.4.2a10.88 10.88 0 0 0 2.8.3 9.58 9.58 0 0 0 2.2-.3h.2l.6-2a.32.32 0 0 1 .3-.3h.2l1.6 1 .2-.1a12.72 12.72 0 0 0 3.8-3.5l.1-.2-.8-2V15q0-.15.3-.3l2-.6.1-.2a11.85 11.85 0 0 0 0-5.3l-.1-.2-1.5-.4a.35.35 0 0 1-.2-.1.6.6 0 0 1-.1-.4l.8-1.5-.1-.2a12.06 12.06 0 0 0-3.5-3.6l-.2-.1-2 1.2h-.2a.32.32 0 0 1-.3-.3l-.7-2.6-.2-.1-2.4-.3z" fill="#ccc"/><path d="M11.12 55a3.8 3.8 0 0 1-2.687-6.487A3.8 3.8 0 0 1 14.92 51.2a3.8 3.8 0 0 1-3.8 3.8zm0-6.8a3 3 0 1 0 0 6 3 3 0 0 0 2.121-5.121 3 3 0 0 0-2.121-.879z" fill="#ff7300"/><path d="M11.12 40.6a19.09 19.09 0 0 1 2 .2l.6 2.2a1 1 0 0 0 1 .9h.4l.2-.1 1.5-1a10.44 10.44 0 0 1 2.9 3l-.6 1.1-.1.2v.2a1.21 1.21 0 0 0 .3.9.85.85 0 0 0 .6.3l1.1.3a10.87 10.87 0 0 1 0 4.4l-1.5.6h-.2a1.07 1.07 0 0 0-.7 1v.5l.1.1.7 1.5a11.84 11.84 0 0 1-3.3 3l-1.2-.8h-.7a1 1 0 0 0-1 .9l-.4 1.4a5.84 5.84 0 0 1-1.8.2 17.91 17.91 0 0 1-2.4-.2l-.3-1.4v-.2l-.2-.2-.1-.1a1.15 1.15 0 0 0-.9-.5 1.07 1.07 0 0 0-.6.2h0l-1.1.7a11.84 11.84 0 0 1-3-3.3l.5-1.1a1.26 1.26 0 0 0-.5-1.6h-.1l-1-.3a16.2 16.2 0 0 1 0-4.4l1.1-.3a1.15 1.15 0 0 0 .9-.6 1.09 1.09 0 0 0 .1-.5.73.73 0 0 0-.2-.6l-1-1.3a10.5 10.5 0 0 1 3.1-3.2l1.4.8.2.1h.3a1 1 0 0 0 1-.9l.5-1.6a4.94 4.94 0 0 1 2.4-.5m0-.7a11.15 11.15 0 0 0-2.7.3l-.2.1-.6 2.1a.32.32 0 0 1-.3.3h-.1l-1.9-1-.2.1a11.15 11.15 0 0 0-3.7 3.8l-.1.2 1 1.6a.19.19 0 0 1 0 .3c0 .1-.1.2-.3.2l-1.8.5v.2a14.56 14.56 0 0 0 0 5.1v.2l1.5.5a.48.48 0 0 1 .2.6l-.7 1.5.1.2a12.72 12.72 0 0 0 3.5 3.8l.2.2 1.6-1c.2-.1.2-.1.3-.1s.3.2.5.4l.4 1.9.2.1a10.88 10.88 0 0 0 2.8.3 9.58 9.58 0 0 0 2.2-.3h.2l.6-2a.32.32 0 0 1 .3-.3h.2l1.6 1 .2-.1a12.72 12.72 0 0 0 3.8-3.5l.1-.2-.8-2v-.2q0-.15.3-.3l2-.6.1-.2a11.85 11.85 0 0 0 0-5.3l-.1-.2-1.5-.4a.35.35 0 0 1-.2-.1.6.6 0 0 1-.1-.4l.8-1.5-.1-.2a12.06 12.06 0 0 0-3.5-3.6l-.2-.1-2 1.2h-.2a.32.32 0 0 1-.3-.3l-.7-2.6-.2-.1c-.7 0-1.6-.1-2.2-.1z" fill="#fff"/></svg>