<svg xmlns="http://www.w3.org/2000/svg" viewBox="0 0 45 80" xmlns:v="https://vecta.io/nano">
	<g fill="#ccc">
		<path d="M33.2 15.1h-4.9v-1.6a1.22 1.22 0 0 0-1.2-1.2h-9.7a1.22 1.22 0 0 0-1.2 1.2v1.6h-4.7a1.63 1.63 0 0 0-1.6 1.5V27a1.54 1.54 0 0 0 1.5 1.5H17c.2.1.3.2.5.2h9.7a.76.76 0 0 0 .5-.2h5.7a1.54 1.54 0 0 0 1.5-1.5V16.6a1.66 1.66 0 0 0-1.7-1.5zm-22.6 12V16.6a.77.77 0 0 1 .8-.7h4.8v11.9h-4.9a.68.68 0 0 1-.7-.7zm16.6.8a.35.35 0 0 0-.2.1h-9.7a.31.31 0 0 1-.2-.1l-.2-.1V15.5h0v-2a.43.43 0 0 1 .4-.4H27a.43.43 0 0 1 .4.4v2.4h0v11.9h0zm6.7-11.3h0v10.5a.68.68 0 0 1-.7.7h-4.9V15.9h4.9a1.07 1.07 0 0 1 .6.2.75.75 0 0 1 .1.5z" />
		<circle cx="22.3" cy="24" r=".8" />
		<path d="M28.9 23.6v1.6a.79.79 0 0 0 .8-.8.86.86 0 0 0-.8-.8zm-14 .8a.79.79 0 0 0 .8.8v-1.6a.79.79 0 0 0-.8.8zm3.3-9.9h8.1v.9h-8.1zm0 2.3h8.1v.9h-8.1zm10.7-.1h3.4v.9h-3.4zm0 2.4h3.4v.9h-3.4zM12 16.7h3.7v.9H12zm0 2.4h3.7v.9H12zm6.2 0h8.1v.9h-8.1zm10.7 2.3h3.4v.9h-3.4zm-16.9 0h3.7v.9H12z" />
	</g>
	<path d="M33.2 55h-4.9v-1.6a1.22 1.22 0 0 0-1.2-1.2h-9.7a1.22 1.22 0 0 0-1.2 1.2V55h-4.7a1.63 1.63 0 0 0-1.6 1.5V67a1.54 1.54 0 0 0 1.5 1.5H17c.2.1.3.2.5.2h9.7a.76.76 0 0 0 .5-.2h5.7a1.54 1.54 0 0 0 1.5-1.5V56.6a1.74 1.74 0 0 0-1.7-1.6zM10.6 67.1V56.6a.77.77 0 0 1 .8-.7h4.8v11.9h-4.9a.68.68 0 0 1-.7-.7zm16.6.8a.35.35 0 0 0-.2.1h-9.7a.31.31 0 0 1-.2-.1l-.2-.1V55.5h0v-2.1a.43.43 0 0 1 .4-.4H27a.43.43 0 0 1 .4.4v2.4h0v11.9h0zm6.7-11.3h0v10.5a.68.68 0 0 1-.7.7h-4.9V55.9h4.9a1.07 1.07 0 0 1 .6.2.75.75 0 0 1 .1.5z" fill="#fff" />
	<g fill="#ff7300">
		<circle cx="22.3" cy="64" r=".8" />
		<path d="M28.9 63.6v1.6a.79.79 0 0 0 .8-.8.86.86 0 0 0-.8-.8zm-14 .8a.79.79 0 0 0 .8.8v-1.6a.79.79 0 0 0-.8.8zm3.3-9.9h8.1v.9h-8.1zm0 2.3h8.1v.9h-8.1zm10.7-.1h3.4v.9h-3.4zm0 2.4h3.4v.9h-3.4zM12 56.7h3.7v.9H12zm0 2.4h3.7v.9H12zm6.2 0h8.1v.9h-8.1zm10.7 2.3h3.4v.9h-3.4zm-16.9 0h3.7v.9H12z" />
	</g>
</svg>
