<svg xmlns="http://www.w3.org/2000/svg" viewBox="0 0 40 80" xmlns:v="https://vecta.io/nano"><path d="M20 12.4a8 8 0 0 1 7.9 7.9 7.63 7.63 0 0 1-2.3 5.6 8.08 8.08 0 0 1-5.8 2.4 8 8 0 0 1-7.9-7.9 8.24 8.24 0 0 1 8.1-8m0-.8a8.94 8.94 0 0 0-8.8 8.8 8.8 8.8 0 0 0 17.6 0 9 9 0 0 0-8.8-8.8zm8.637 4.028l.964-.53.482.876-.964.53zm-9.18-4.82l.047-1.299.899.033-.047 1.299zm.089 20.497l.047-1.299.899.033-.047 1.299zm9.124-7.022l.475-.88 1.144.618-.475.88zm-18.645-8.658l.44-.898 1.167.572-.44.898zm-.471 8.435l1.162-.583.403.805-1.162.583zM19.7 23.5v-2.2l-.6-.3a4 4 0 0 1-1.6-1 2.2 2.2 0 0 1-.6-1.5 3.43 3.43 0 0 1 .9-1.8c.4-.4.7-.6 2.1-.7v-1.1h.9V16a25.12 25.12 0 0 1 2.7.4l-.4 1.3a5.09 5.09 0 0 0-2.2-.4v2.5h0a7 7 0 0 1 2.2 1.3 1.68 1.68 0 0 1 .6 1.4 2.18 2.18 0 0 1-.7 1.6 3.54 3.54 0 0 1-2.2.7v1.4h-.9V25a17 17 0 0 1-2.8-.4v-1.4a7.75 7.75 0 0 0 2.6.3zm-1.1-5.1c0 .8 1.2 1 1.2 1v-2.1a1.12 1.12 0 0 0-1.2 1.1zm3.2 4.3c-.1-.9-1.1-1.1-1.1-1.1v1.9c1-.1 1.1-.8 1.1-.8z" fill="#ccc"/><path d="M20 52.6a8 8 0 0 1 7.9 7.9 7.63 7.63 0 0 1-2.3 5.6 8.08 8.08 0 0 1-5.8 2.4 8 8 0 0 1-7.9-7.9 8.24 8.24 0 0 1 8.1-8m0-.9a8.8 8.8 0 0 0 0 17.6 8.81 8.81 0 0 0 8.8-8.8 9.08 9.08 0 0 0-8.8-8.8zm8.661 4.126l.964-.53.482.876-.964.53zm-9.18-4.844l.047-1.299.899.033-.047 1.299zm.1 20.498l.047-1.299.899.033-.047 1.299zm9.125-7.015l.475-.88 1.144.618-.475.88zm-18.651-8.657l.44-.898 1.167.572-.44.898zm-.484 8.449l1.162-.583.403.805-1.162.583z" fill="#fff"/><path d="M19.7 63.7v-2.2l-.6-.3a4 4 0 0 1-1.6-1 2.2 2.2 0 0 1-.6-1.5 3.43 3.43 0 0 1 .9-1.8 3.05 3.05 0 0 1 2.1-.7V55h.9v1.1a25.12 25.12 0 0 1 2.7.4l-.4 1.3a5.09 5.09 0 0 0-2.2-.4V60h0a7 7 0 0 1 2.2 1.3 1.68 1.68 0 0 1 .6 1.4 2.18 2.18 0 0 1-.7 1.6 3.54 3.54 0 0 1-2.2.7v1.4h-.9V65a17 17 0 0 1-2.8-.4v-1.4a5.67 5.67 0 0 0 2.6.5zm-1.1-5.2c0 .8 1.2 1 1.2 1v-2.1c-.5.1-1.2.3-1.2 1.1zm3.2 4.4c-.1-.9-1.1-1.1-1.1-1.1v1.9c1-.1 1.1-.8 1.1-.8z" fill="#ff7300"/></svg>