<svg xmlns="http://www.w3.org/2000/svg" xmlns:xlink="http://www.w3.org/1999/xlink" viewBox="0 0 39 80" xmlns:v="https://vecta.io/nano"><g fill="#ccc"><path d="M15.1 24.7h-4.7v-.8h4.7a3.45 3.45 0 0 0 2.8-1.6l1.8-4.3a3.37 3.37 0 0 1 2.7-1.8H28v.8h-5.6a2.58 2.58 0 0 0-2.1 1.3l-1.6 4.2c-1.2 1.3-2.3 2.2-3.6 2.2z"/><path d="M25.9,18.3c-.1,0-.2-.1-.3-.2s-.1-.4.1-.5l1.6-1.1-1.4-1.4a.35.35,0,0,1,.5-.5l1.8,1.8a.37.37,0,0,1,.1.3c0,.1-.1.2-.2.3L26,18.3Z"/><use xlink:href="#B"/><use xlink:href="#C"/><path d="M17.8,18.3c-.1,0-.3-.1-.3-.2a2.33,2.33,0,0,0-2.1-1.3H9.8a.4.4,0,1,1,0-.8h5.6a3.16,3.16,0,0,1,2.7,1.8.44.44,0,0,1-.1.5Z"/><use xlink:href="#D"/><use xlink:href="#E"/></g><g fill="#fff"><path d="M15.1 64.8h-4.7V64h4.7a3.45 3.45 0 0 0 2.8-1.6l1.8-4.3a3.37 3.37 0 0 1 2.7-1.8H28v.8h-5.6a2.58 2.58 0 0 0-2.1 1.3l-1.6 4.2c-1.2 1.4-2.3 2.2-3.6 2.2z"/><path d="M25.9,58.5c-.1,0-.2-.1-.3-.2s-.1-.4.1-.5l1.6-1.1-1.4-1.4a.35.35,0,0,1,.5-.5l1.8,1.8a.37.37,0,0,1,.1.3c0,.1-.1.2-.2.3L26,58.5Z"/><use xlink:href="#B" y="40.2"/></g><g fill="#ff7300"><use xlink:href="#C" y="40.1"/><path d="M17.8 58.5c-.1 0-.3-.1-.3-.2a2.33 2.33 0 0 0-2.1-1.3H9.8a.4.4 0 0 1 0-.8h5.6a3.16 3.16 0 0 1 2.7 1.8.44.44 0 0 1-.1.5z"/><use xlink:href="#D" y="40.2"/><use xlink:href="#E" y="40.2"/></g><defs ><path id="B" d="M11.7 26.3a.37.37 0 0 1-.3-.1l-1.9-1.8a.37.37 0 0 1-.1-.3c0-.1.1-.2.2-.3l2-1.4c.2-.1.4-.1.5.1s.1.4-.1.5l-1.6 1.1 1.4 1.4a.28.28 0 0 1 0 .5.44.44 0 0 1-.1.3z"/><path id="C" d="M27.3 24.6h-4.7a3.67 3.67 0 0 1-3.3-2.1c-.1-.2-.1-.4.1-.5s.4-.1.5.1a3.19 3.19 0 0 0 2.8 1.6h4.7a.43.43 0 0 1 .4.4.64.64 0 0 1-.5.5z"/><path id="D" d="M11.7 18.3c-.1 0-.1 0-.2-.1l-2-1.4c-.1-.1-.2-.2-.2-.3a.37.37 0 0 1 .1-.3l1.8-1.8a.45.45 0 0 1 .5 0 .45.45 0 0 1 0 .5l-1.4 1.4 1.6 1.1c.2.1.2.3.1.5s-.2.4-.3.4z"/><path id="E" d="M25.9 26.3a.37.37 0 0 1-.3-.1.45.45 0 0 1 0-.5l1.4-1.4-1.6-1.1c-.2-.1-.2-.3-.1-.5s.3-.2.5-.1l2.1 1.3c.1.1.2.2.2.3a.37.37 0 0 1-.1.3l-1.8 1.8c-.1-.1-.2 0-.3 0z"/></defs></svg>