<?xml version="1.0" encoding="utf-8"?>
<!-- Generator: Adobe Illustrator 16.0.0, SVG Export Plug-In . SVG Version: 6.00 Build 0)  -->
<!DOCTYPE svg PUBLIC "-//W3C//DTD SVG 1.1//EN" "http://www.w3.org/Graphics/SVG/1.1/DTD/svg11.dtd">
<svg version="1.1" id="Layer_1" xmlns="http://www.w3.org/2000/svg" xmlns:xlink="http://www.w3.org/1999/xlink" x="0px" y="0px"
	 width="2000px" height="440px" viewBox="0 0 2000 440" enable-background="new 0 0 2000 440" xml:space="preserve">
<g>
	<g>
		<g>
			<path fill="#231F20" d="M478.112,151.418c0,0-34.208-5.359-57.013-5.359c-21.463,0-44.934,6.359-44.934,33.543
				c0,20.778,9.052,27.147,47.613,33.181c43.937,7.056,61.031,13.424,61.031,44.937c0,39.236-24.143,51.312-63.71,51.312
				c-19.112,0-55.329-5.367-55.329-5.367l1.343-11.057c0,0,36.211,5.705,53.32,5.705c31.518,0,51.971-7.391,51.971-39.585
				c0-24.134-12.067-28.815-51.971-34.869c-39.237-6.048-56.68-12.394-56.68-43.597c0-35.54,30.179-44.936,57.345-44.936
				c25.821,0,57.682,5.027,57.682,5.027L478.112,151.418z"/>
			<path fill="#231F20" d="M650.14,295.279l0.666,10.742c0,0-37.552,3.011-62.036,3.011c-49.964-0.34-63.037-32.192-63.037-86.853
				c0-66.404,29.506-86.853,67.727-86.853c41.253,0,63.73,22.468,63.73,80.479v11.062H538.137c0,46.29,12.068,71.445,50.97,71.445
				C612.58,298.313,650.14,295.279,650.14,295.279z M644.777,216.141c0-51.309-16.433-70.081-51.317-70.081
				c-33.519,0-55.323,19.111-55.323,70.081H644.777z"/>
			<path fill="#231F20" d="M709.501,138.326h11.735v26.167c0,0,29.509-22.458,66.397-29.505v11.396
				c-32.867,6.373-66.397,29.176-66.397,29.176v130.461h-11.735V138.326z"/>
			<path fill="#231F20" d="M818.483,138.326l48.959,156.953h14.423l49.298-156.953h12.403l-52.644,167.695h-32.871l-51.979-167.695
				H818.483z"/>
			<path fill="#231F20" d="M1099.837,295.279l0.676,10.742c0,0-37.558,3.011-62.038,3.011c-49.969-0.34-63.05-32.192-63.05-86.853
				c0-66.404,29.512-86.853,67.741-86.853c41.254,0,63.72,22.468,63.72,80.479v11.062H987.842c0,46.29,12.072,71.445,50.964,71.445
				C1062.29,298.313,1099.837,295.279,1099.837,295.279z M1094.479,216.141c0-51.309-16.434-70.081-51.313-70.081
				c-33.532,0-55.324,19.111-55.324,70.081H1094.479z"/>
			<path fill="#231F20" d="M1159.198,138.326h11.738v26.167c0,0,29.51-22.458,66.393-29.505v11.396
				c-32.854,6.373-66.393,29.176-66.393,29.176v130.461h-11.738V138.326z"/>
		</g>
		<g>
			<path fill="#F9AC43" d="M1276.339,138.688h38.222v9.034c0,0,22.809-13.063,41.918-13.063c43.595,0,64.395,23.136,64.395,85.84
				c0,69.746-23.81,89.21-75.123,89.21c-13.752,0-29.516-2.691-31.189-3.02v71.086h-38.222V138.688z M1314.561,178.586v94.223
				c1.346,0.349,17.438,2.354,28.505,2.354c30.183,0,38.897-14.757,38.897-54.664c0-37.889-12.402-50.63-32.526-50.63
				C1334.688,169.869,1314.561,178.586,1314.561,178.586z"/>
			<path fill="#F9AC43" d="M1598.271,221.52c0,53.978-17.435,88.189-75.117,88.189c-57.672,0-75.463-33.538-75.463-88.189
				c0-53.661,18.784-86.86,75.463-86.86C1578.818,134.659,1598.271,168.179,1598.271,221.52z M1559.372,221.52
				c0-35.218-9.053-51.989-36.218-51.989c-28.507,0-36.554,16.101-36.554,51.989c0,36.201,6.706,53.644,36.554,53.644
				C1553.003,275.163,1559.372,257.06,1559.372,221.52z"/>
			<path fill="#F9AC43" d="M1635.82,70.936h38.241v40.585h-38.241V70.936z M1635.82,138.688h38.241v167.333h-38.241V138.688z"/>
			<path fill="#F9AC43" d="M1722.683,306.021V138.688h38.231v8.375c0,0,26.492-12.403,44.938-12.403
				c46.612,0,58.347,27.502,58.347,83.821v87.541h-38.232V218.83c0-31.861-4.021-48.284-27.5-48.284
				c-14.756,0-37.553,7.706-37.553,7.706v127.769H1722.683z"/>
			<path fill="#F9AC43" d="M1952.395,173.225v68.399c0,23.132,0.673,31.847,17.447,31.847c9.384,0,27.155-0.98,27.155-0.98
				l1.676,32.855c0,0-22.468,4.697-34.206,4.697c-38.557,0-50.302-14.764-50.302-63.05v-73.769h-21.121v-34.537h21.121V90.045
				h38.229v48.643h45.275v34.537H1952.395z"/>
		</g>
	</g>
	<g>
		<linearGradient id="SVGID_1_" gradientUnits="userSpaceOnUse" x1="159.4189" y1="381.252" x2="159.4189" y2="63.957">
			<stop  offset="0" style="stop-color:#E65329"/>
			<stop  offset="1" style="stop-color:#F9AC43"/>
		</linearGradient>
		<path fill="url(#SVGID_1_)" d="M159.417,63.957c-18.902,0-37.027,3.312-53.836,9.376c-2.705-0.926-5.591-1.45-8.605-1.45
			c-11.908,0-22.016,7.842-25.442,18.63c-42.655,28.438-70.76,76.979-70.76,132.088c0,87.623,71.026,158.65,158.643,158.65
			c87.622,0,158.648-71.027,158.648-158.65C318.064,134.984,247.038,63.957,159.417,63.957z M96.976,88.719
			c5.444,0,9.856,4.412,9.856,9.857c0,5.442-4.412,9.853-9.856,9.853s-9.857-4.411-9.857-9.853
			C87.118,93.131,91.531,88.719,96.976,88.719z M286.729,285.671c-14.543,29.098-39.424,52.81-69.126,66.142
			c-29.709,13.426-63.975,16.023-95.392,7.646c-31.437-8.402-59.692-27.906-78.553-54.259c-9.463-13.13-16.695-27.863-21.175-43.382
			c-4.471-15.522-6.224-31.773-5.278-47.817c1.952-32.104,15.216-63.322,37.056-86.487l0.009-0.012
			c1.205-1.276,3.213-1.337,4.493-0.13c1.237,1.163,1.323,3.091,0.236,4.373c-4.923,5.774-9.354,11.956-13.22,18.452
			c-3.901,6.473-7.253,13.273-9.99,20.295c-5.487,14.042-8.514,28.985-8.963,43.969c-0.344,8.964,0.313,17.932,1.852,26.735
			l18.964-20.204c0.85-0.896,2.471-1.444,3.335-1.636C50.425,220.629,51,222.033,51,223.5v69.852c0,1.689,3.002,3.359,4.231,4.994
			c0.562,0.751,2.769,1.476,2.769,2.215V223.5c0-2.504,0.165-4.221,2.468-4.221c0.354,0,0,0.036,0.375,0.121l55.196,12.657
			c2.819,0.636,3.961,3.52,3.961,6.411v107.383c0,0.474,3.733,0.929,5.335,1.342c0.722,0.19,2.665,0.354,2.665,0.529V238.469
			c0-2.712-1.34-5.441-3.13-7.679c-1.79-2.239-4.412-3.802-7.055-4.398l-21.933-4.924c0.368-3.025,1.93-6.609,3.911-8.63
			l36.427-37.219c0.868-0.887,1.25-1.417,2.109-1.582c-0.562,1.268-1.33,2.665-1.33,4.134v171.524c3,0.309,5,0.595,5,0.822V178.17
			c0-2.444,2.571-4.117,4.813-4.117c0.342,0,1.167,0.04,1.531,0.123l57.017,12.71c2.747,0.622,5.639,3.435,5.639,6.253V340.78
			c0-0.262-0.208-0.504,0.397-0.772c1.488-0.664,3.603-1.365,3.603-2.085V193.14c0-2.677-0.474-5.367-2.241-7.581
			c-1.768-2.205-4.144-3.75-6.755-4.336l-21.741-4.948c0.216-3.118,2.133-7.014,4.244-9.143l36.738-36.776
			c0.829-0.833,1.525-1.341,2.363-1.525c-0.552,1.26-0.607,2.649-0.607,4.093v198.566c3-0.988,5-2.014,5-3.068V132.923
			c0-2.419,1.901-4.081,4.119-4.081c0.341,0,0.976,0.039,1.338,0.121l20.41,4.596c-4.837-5.61-10.111-10.834-15.816-15.585
			c-11.498-9.63-24.656-17.322-38.792-22.572c-7.065-2.628-14.356-4.651-21.786-6.054c-7.432-1.434-14.962-2.24-22.591-2.407
			c-1.757-0.04-3.142-1.268-3.104-3.026c0.037-1.708,1.419-2.916,3.11-2.916h0.033c7.906,0,15.909,0.147,23.791,1.333
			c7.885,1.203,15.673,3.055,23.254,5.604c15.163,5.101,29.467,12.779,42.105,22.712c12.629,9.943,23.532,22.076,32.137,35.723
			c8.632,13.636,14.817,28.823,18.314,44.623c3.49,15.814,4.286,32.189,2.276,48.285
			C298.813,255.379,294.028,271.157,286.729,285.671z"/>
		<linearGradient id="Light_1_" gradientUnits="userSpaceOnUse" x1="159.6411" y1="242.9707" x2="159.6411" y2="97.0239">
			<stop  offset="0" style="stop-color:#FFFDFD;stop-opacity:0"/>
			<stop  offset="1" style="stop-color:#FFFFFF"/>
		</linearGradient>
		<path id="Light_40_" opacity="0.5" fill="url(#Light_1_)" d="M259.654,169.999c0,40.302-44.774,72.972-100.013,72.972
			c-55.232,0-100.012-32.67-100.012-72.972s44.78-72.975,100.012-72.975C214.879,97.023,259.654,129.697,259.654,169.999z"/>
		<linearGradient id="Light_2_" gradientUnits="userSpaceOnUse" x1="159.6411" y1="202.7988" x2="159.6411" y2="97.2119">
			<stop  offset="0" style="stop-color:#FFFDFD;stop-opacity:0"/>
			<stop  offset="1" style="stop-color:#FFFFFF"/>
		</linearGradient>
		<path id="Light_39_" opacity="0.5" fill="url(#Light_2_)" d="M231.997,150.006c0,29.159-32.394,52.793-72.356,52.793
			c-39.958,0-72.354-23.634-72.354-52.793c0-29.154,32.397-52.794,72.354-52.794C199.603,97.212,231.997,120.852,231.997,150.006z"
			/>
		<g>
			<circle fill="#FFFFFF" cx="96.976" cy="98.574" r="9.855"/>
			<path fill="#FFFFFF" d="M298.522,191.022c-3.497-15.801-9.682-30.962-18.314-44.598c-8.605-13.645-19.508-25.729-32.137-35.669
				c-12.638-9.932-26.942-17.505-42.105-22.607c-7.581-2.551-15.37-4.612-23.254-5.814C174.831,81.147,166.828,81,158.922,81h-0.033
				c-1.691,0-3.071,1.208-3.11,2.916c-0.036,1.758,1.352,2.777,3.107,2.817c7.629,0.167,15.161,1.075,22.592,2.513
				c7.431,1.402,14.729,3.475,21.794,6.107c14.135,5.245,27.306,12.964,38.805,22.594c5.701,4.753,11.001,9.993,15.838,15.601
				l-20.359-4.59c-0.362-0.084-1.096-0.118-1.438-0.118c-2.218,0-4.119,1.665-4.119,4.084v195.498c0,1.055-2,2.08-5,3.068V132.923
				c0-1.444,0.083-2.833,0.636-4.093c-0.835,0.184-1.796,0.692-2.622,1.525l-36.534,36.776c-2.112,2.129-3.845,6.025-4.058,9.143
				l22.003,4.948c2.612,0.586,4.545,2.131,6.313,4.336c1.767,2.213,2.262,4.904,2.262,7.581v144.783c0,0.72-2.114,1.421-3.603,2.085
				c-0.605,0.269-0.397,0.511-0.397,0.772V193.14c0-2.818-2.736-5.631-5.485-6.253l-56.905-12.71
				c-0.368-0.083-1.474-0.123-1.817-0.123c-2.242,0-4.793,1.673-4.793,4.117v172.346c0-0.228-2-0.514-5-0.822V178.17
				c0-1.469,0.763-2.866,1.325-4.134c-0.857,0.165-1.39,0.694-2.257,1.582l-36.367,37.219c-1.979,2.021-3.53,5.605-3.896,8.63
				l21.91,4.924c2.641,0.597,5.354,2.159,7.145,4.398c1.793,2.237,3.141,4.967,3.141,7.679v109.254c0-0.176-1.943-0.339-2.665-0.529
				c-1.602-0.413-5.335-0.868-5.335-1.342V238.469c0-2.892-1.459-5.775-4.276-6.411L60.066,219.4
				c-0.378-0.085,0.679-0.121,0.33-0.121c-2.301,0-2.396,1.717-2.396,4.221v77.061c0-0.739-2.208-1.464-2.769-2.215
				c-1.229-1.635-4.231-3.305-4.231-4.994V223.5c0-1.467-0.575-2.871-0.023-4.145c-0.864,0.191-2.188,0.739-3.038,1.636
				l-19.116,20.204c-1.536-8.804-2.267-17.771-1.927-26.735c0.45-14.984,3.442-29.928,8.928-43.969
				c2.739-7.021,6.071-13.822,9.974-20.295c3.867-6.497,8.29-12.678,13.211-18.452c1.088-1.281,0.997-3.209-0.24-4.373
				c-1.279-1.207-3.291-1.146-4.497,0.13l-0.01,0.012C32.421,150.678,19.158,181.896,17.204,214
				c-0.947,16.044,0.807,32.295,5.278,47.817c4.479,15.519,11.71,30.252,21.175,43.382c18.861,26.353,47.116,45.856,78.553,54.259
				c31.417,8.378,65.683,5.78,95.392-7.646c29.702-13.332,54.583-37.044,69.126-66.142c7.299-14.514,12.084-30.282,14.07-46.381
				C302.808,223.199,302.012,206.833,298.522,191.022z M112,314.792c0,1.305,0.99,2.149-0.285,1.871L62.179,305.88
				C60.903,305.601,60,304.307,60,303v-25.382c0-1.308,1.492-2.149,2.767-1.873l48.006,10.787c1.276,0.275,1.228,1.57,1.228,2.877
				V314.792z M112,269.156c0,1.308,0.868,2.146-0.408,1.871l-49.511-10.783C60.805,259.969,60,258.67,60,257.366v-25.383
				c0-1.309,1.589-2.149,2.869-1.87l48.027,10.782c1.275,0.279,1.104,1.57,1.104,2.878V269.156z M201,314.792
				c0,1.305,0.638,2.149-0.636,1.871l-48.4-10.783C150.69,305.601,151,304.307,151,303v-25.382c0-1.308,0.445-2.149,1.72-1.873
				l47.646,10.787c1.275,0.275,0.635,1.57,0.635,2.877V314.792z M201,269.156c0,1.308,0.535,2.146-0.742,1.871l-48.461-10.783
				c-1.273-0.275-0.797-1.574-0.797-2.878v-25.383c0-1.309,0.611-2.149,1.889-1.87l47.581,10.782c1.277,0.279,0.53,1.57,0.53,2.878
				V269.156z M201,223.957c0,1.307,0.638,2.149-0.636,1.871l-48.4-10.784c-1.274-0.276-0.964-1.573-0.964-2.877v-25.385
				c0-1.302,0.445-2.146,1.72-1.871l47.646,10.786c1.275,0.273,0.635,1.572,0.635,2.877V223.957z M239,141.585
				c0-1.31,2.355-2.152,3.628-1.876l23.074,4.926c1.64,2.375,3.705,4.781,5.186,7.26c5.011,8.379,9.425,17.296,12.494,26.539
				l-41.001-8.588c-1.276-0.278-3.38-1.573-3.38-2.878V141.585z M255.994,308.498l-13.508-2.618
				c-1.277-0.279-3.485-1.573-3.485-2.88v-25.382c0-1.308,2.323-2.149,3.599-1.873l31.205,6.612
				C268.7,291.771,263.192,300.574,255.994,308.498z M281.077,268.282l-38.478-8.038c-1.276-0.275-3.599-1.574-3.599-2.878v-25.383
				c0-1.309,2.205-2.149,3.485-1.87l45.544,9.696C286.567,249.56,284.695,259.125,281.077,268.282z M289.992,225.046l-47.447-10.001
				c-1.275-0.276-3.545-1.573-3.545-2.877v-25.385c0-1.302,2.323-2.146,3.599-1.871l44.349,9.489
				C288.93,204.479,290.384,214.789,289.992,225.046z"/>
		</g>
		<linearGradient id="Docks_1_" gradientUnits="userSpaceOnUse" x1="174.8306" y1="316.5332" x2="174.8306" y2="139.4805">
			<stop  offset="0" style="stop-color:#F9AC43"/>
			<stop  offset="1" style="stop-color:#E65329"/>
		</linearGradient>
		<path id="Docks_20_" fill="url(#Docks_1_)" d="M242.599,184.727l44.349,9.489c1.981,10.083,3.024,20.39,2.631,30.649
			l-47.243-10.003c-1.272-0.276-3.336-1.572-3.336-2.878v-25.385C239,185.292,241.323,184.452,242.599,184.727z M242.599,275.565
			c-1.276-0.279-3.599,0.563-3.599,1.867v25.383c0,1.31,2.208,2.604,3.485,2.881l12.682,2.62
			c7.197-7.926,13.121-16.728,18.223-26.139L242.599,275.565z M242.485,229.927c-1.281-0.278-3.485,0.564-3.485,1.871v25.385
			c0,1.307,2.323,2.6,3.599,2.878l37.651,8.038c3.616-9.157,5.903-18.722,7.367-28.471L242.485,229.927z M239,141.401v25.383
			c0,1.307,2.208,2.602,3.485,2.877l40.273,8.588c-3.065-9.24-6.859-18.157-11.87-26.536c-1.481-2.479-2.925-4.888-4.569-7.26
			l-23.796-4.92C241.25,139.254,239,140.095,239,141.401z M152.737,305.696l47.799,10.785c1.275,0.274,0.464-0.566,0.464-1.87
			v-25.385c0-1.307,0.466-2.6-0.807-2.878l-48.245-10.783c-1.277-0.279-0.948,0.563-0.948,1.867v25.383
			C151,304.125,151.46,305.42,152.737,305.696z M62.813,260.061l48.141,10.785c1.278,0.273,1.047-0.565,1.047-1.872v-25.38
			c0-1.31,0.81-2.605-0.463-2.883l-49.4-10.784C60.86,229.648,60,230.491,60,231.798v25.385
			C60,258.489,61.535,259.782,62.813,260.061z M62.912,305.696l48.164,10.785c1.278,0.274,0.924-0.566,0.924-1.87v-25.385
			c0-1.307,0.688-2.6-0.589-2.878l-49.375-10.783c-1.275-0.279-2.036,0.563-2.036,1.867v25.383
			C60,304.125,61.635,305.42,62.912,305.696z M152.57,260.061l47.859,10.785c1.277,0.273,0.57-0.565,0.57-1.872v-25.38
			c0-1.31,0.574-2.605-0.705-2.883l-48.182-10.784c-1.276-0.278-1.113,0.564-1.113,1.871v25.385
			C151,258.489,151.299,259.782,152.57,260.061z M152.737,214.862l47.799,10.786c1.275,0.277,0.464-0.566,0.464-1.872v-25.381
			c0-1.309,0.466-2.604-0.807-2.884l-48.245-10.783c-1.277-0.275-0.948,0.565-0.948,1.872v25.385
			C151,213.29,151.46,214.585,152.737,214.862z"/>
	</g>
</g>
</svg>
