<?xml version="1.0" standalone="no"?>
<!DOCTYPE svg PUBLIC "-//W3C//DTD SVG 20010904//EN"
 "http://www.w3.org/TR/2001/REC-SVG-20010904/DTD/svg10.dtd">
<svg version="1.0" xmlns="http://www.w3.org/2000/svg"
 width="402.000000pt" height="370.000000pt" viewBox="0 0 402.000000 370.000000"
 preserveAspectRatio="xMidYMid meet">

<g transform="translate(0.000000,370.000000) scale(0.100000,-0.100000)"
fill="#000000" stroke="none">
<path d="M1940 3572 c-306 -14 -635 -174 -829 -405 -67 -79 -155 -214 -180
-275 -12 -28 -16 -30 -84 -34 -161 -11 -159 -4 -155 -498 3 -416 3 -415 57
-441 15 -6 58 -14 98 -17 68 -4 72 -6 84 -34 21 -51 109 -190 156 -248 228
-276 562 -432 923 -431 408 1 771 198 996 541 34 52 70 111 79 131 17 36 18
36 90 42 79 6 115 23 133 63 9 17 12 141 12 414 0 273 -3 397 -12 414 -18 40
-54 57 -133 63 -72 6 -73 6 -90 42 -36 76 -145 229 -218 307 -232 246 -577
383 -927 366z m747 -734 c55 -18 79 -33 129 -83 88 -86 98 -126 91 -340 -4
-129 -10 -176 -29 -241 -62 -208 -221 -384 -418 -462 -115 -45 -169 -52 -453
-52 -211 0 -283 3 -340 16 -243 55 -444 235 -522 469 -50 148 -59 419 -17 515
36 85 108 148 205 181 48 17 102 18 669 19 610 0 618 0 685 -22z"/>
<path d="M1626 2662 c-3 -5 -19 -51 -35 -103 l-31 -94 -97 -30 c-89 -28 -98
-33 -98 -55 0 -22 9 -27 98 -55 l98 -30 30 -98 c45 -144 65 -143 115 6 l31 92
88 27 c150 47 150 69 0 116 l-90 28 -30 90 c-16 49 -34 95 -38 102 -9 14 -33
16 -41 4z"/>
<path d="M1070 1167 c-437 -218 -700 -605 -734 -1084 l-6 -83 473 0 474 0 6
138 c3 75 11 154 18 175 15 45 86 117 131 134 24 8 182 12 574 12 588 1 575 2
643 -55 63 -53 75 -92 79 -256 l4 -148 475 0 476 0 -6 90 c-17 230 -90 444
-223 647 -53 80 -244 269 -331 326 -84 56 -252 147 -271 147 -7 0 -39 -17 -70
-39 -233 -157 -531 -240 -827 -228 -268 11 -511 86 -715 222 -37 25 -72 45
-76 45 -5 -1 -47 -20 -94 -43z"/>
<path d="M1604 204 c-21 -8 -40 -14 -40 -14 -11 -1 -34 -94 -34 -135 l0 -55
115 0 115 0 0 65 c0 73 -16 115 -52 132 -39 19 -64 21 -104 7z"/>
<path d="M2340 214 c-62 -21 -96 -77 -84 -139 10 -56 36 -75 104 -75 73 0 87
5 105 41 28 53 14 124 -29 153 -26 16 -75 27 -96 20z"/>
</g>
</svg>
