<svg xmlns="http://www.w3.org/2000/svg" viewBox="0 0 1920 1080" xmlns:v="https://vecta.io/nano"><style>.C,.F{isolation:isolate}</style><path d="M0 .01h1920v1080H0V.01z" fill="#faf8f5"/><path d="M0 1080.01h598.65c28.18-35.46 49.43-79.26 61.35-133 100.28-452 593.49-736.64 774-839 88.08-49.95 19.15-85.1-74.53-108H0z" fill="#e8e5df"/><g fill="#e2ded7"><path class="C" d="M1615.2 568.9l16.07 511.1H1920V692.49l-18.14-9.12c-165.93-78.13-248.33-107.79-286.66-114.47z" opacity=".82"/><path d="M0 865.41c18.78-41.18 157.36-335.95 343-488.4C527 225.89 944.61 19.24 983.75.01H0z"/></g><path d="M388.57 602.62C431.67 585.9 534 650.8 534 742.81c0 77.42-65.11 140.2-145.43 140.2-110.68 0-158.7-126.93-145.43-140.19 8-8 40.57 24.19 70.45 13.14 53.3-19.72 28.01-135.11 74.98-153.34zm1363.56-255.61c9.4 5.12.75 27.06 13.29 39.59s34.53 3.89 39.66 13.27c6.82 12.47-17.56 52.86-52.95 52.86a52.9 52.9 0 0 1-52.94-52.86c0-35.31 40.45-59.66 52.94-52.86zm83.76 368.36c11.256-15.601 8.877-37.189-5.505-49.964s-36.1-12.592-50.265.424c-146.68-136-266.12-303.17-175.88-569 12-35.32 21.34-67.5 28.31-96.82H977.1C867.54 114.12 732.88 298.25 758.63 495.17a53.71 53.71 0 0 1 45.12-24.06c29.43 0 53.3 23 53.3 51.41s-23.86 51.4-53.3 51.4a54.49 54.49 0 0 1-28.87-8.2q5.88 17.64 13.7 35.33c37.17 83.73 155.26 290.38 315.13 479H1920V786.23l-84.11-70.86z" fill="#f3f0ea"/><path class="F" d="M1766.81 168.01c7-1.62 17.72-.71 22.15 6.28 2.27 3.59 1.48 8.47.39 16.22-1.37 9.78-2 15.64-6.3 19.17-4.41 3.67-10.74 4.15-16.24 3.34-7.86-1.17-18.22-6.55-20.68-16.61-3.13-12.82 8.72-25.58 20.68-28.4z" fill="#eceae4" opacity=".76"/><path d="M259.49 510.01a20.51 20.51 0 0 1 14.533 35.002A20.51 20.51 0 0 1 239 530.53h0a20.49 20.49 0 0 1 20.49-20.52z" fill="#f3f0ea"/><path d="M0 570.14c155.35-42.24 269.59-184.29 269.59-353A364.13 364.13 0 0 0 198.21.01H0z" fill="#f2efe9"/></svg>