<svg xmlns="http://www.w3.org/2000/svg" viewBox="0 0 41 80" xmlns:v="https://vecta.io/nano"><path d="M13.4 17.6h9.5v.9h-9.5zm0 2.7h14.3v.9H13.4zm0 3h14.3v.9H13.4z" fill="#ccc"/><path d="M13.4 57.4h9.5v.9h-9.5zm0 2.7h14.3v.9H13.4zm0 3h14.3v.9H13.4z" fill="#ff7300"/><path d="M30.5 59.1H26v-4.6h1v3.8h3.5v.8z" fill="#fff"/><path d="M27.4,13.8H11.5A1.52,1.52,0,0,0,10,15.2V25.9a1.52,1.52,0,0,0,1.5,1.4h18A1.52,1.52,0,0,0,31,25.9V18.1Zm-.3.9,3.12,3.8H26.9V14.7Zm-16.3.7a.71.71,0,0,1,.8-.7H26v4.6h4.2v6.4a.71.71,0,0,1-.8.7H11.6a.77.77,0,0,1-.8-.7V15.4Z" fill="#ccc"/><path d="M27.4,53.7H11.5A1.52,1.52,0,0,0,10,55.1V65.8a1.52,1.52,0,0,0,1.5,1.4h18A1.52,1.52,0,0,0,31,65.8V58Zm-.3.9,3.12,3.8H26.9V54.6Zm-16.3.7a.71.71,0,0,1,.8-.7H26v4.6h4.2v6.4a.71.71,0,0,1-.8.7H11.6a.77.77,0,0,1-.8-.7V55.3Z" fill="#fff"/></svg>