<svg xmlns="http://www.w3.org/2000/svg" viewBox="0 0 53 80" xmlns:v="https://vecta.io/nano"><g fill="#ccc"><circle cx="22.8" cy="24.2" r="1.2"/><path d="M35.5,12.8a3.39,3.39,0,0,1,1.9,2.5l.1.9.9-.2a7.45,7.45,0,0,1,1.8-.2,3,3,0,0,1,2.3.7A5,5,0,0,1,38,18.9h-.7l-.7-.1-.2.7c-.4,1.5-3,9.2-12.9,9.2-9.7-.5-10.6-8.4-10.7-9.9H32.3a12.94,12.94,0,0,0,2.4-.3h.1l1.1-.2-.5-1a3.7,3.7,0,0,1,.1-4.5m-.2-.9a.55.55,0,0,0-.5.3,5.26,5.26,0,0,0-.4,5.5A11.85,11.85,0,0,1,32,18H12.5a.76.76,0,0,0-.4.2.52.52,0,0,0-.2.4c0,.1.3,10.3,11.5,10.9,10.1,0,13.1-7.5,13.7-9.8h.7a6.07,6.07,0,0,0,5.4-2.9.64.64,0,0,0,0-.6,3.6,3.6,0,0,0-3-1.2,13.55,13.55,0,0,0-2,.2,4,4,0,0,0-2.6-3.3Z"/><path d="M30.1,18.3H15.3V15.5H30v2.8Zm-13.9-.8H29.3V16.4H16.2Z"/><path d="M27.3,16.1h-9V13.3h9Zm-8.1-.8h7.3V14.2H19.2Z"/><path d="M27.3 13.7h-4.2v-2.8h4.2zm-3.4-.8h2.6v-1.1h-2.6zM39.3 21H10.2a.4.4 0 0 1 0-.8h29.1a.43.43 0 0 1 .4.4c.1.3-.2.4-.4.4zm-22.6 5.7a3.75 3.75 0 0 1-1-.1.412.412 0 1 1 .2-.8 4.11 4.11 0 0 0 3.5-1 .64.64 0 0 1 .6 0 .64.64 0 0 1 0 .6 5.4 5.4 0 0 1-3.3 1.3z"/></g><g fill="#fff"><circle cx="22.7" cy="64.1" r="1.2"/><path d="M35.5 52.6a3.39 3.39 0 0 1 1.9 2.5l.1.9.9-.2a7.45 7.45 0 0 1 1.8-.2 3 3 0 0 1 2.3.7 5 5 0 0 1-4.5 2.4h-.7l-.7-.1-.2.7c-.4 1.5-3 9.2-12.9 9.2-9.8-.5-10.7-8.5-10.8-9.9h19.5a12.94 12.94 0 0 0 2.4-.3h.1l1.1-.2-.5-1a3.89 3.89 0 0 1 .2-4.5m-.2-.9a.55.55 0 0 0-.5.3 5.26 5.26 0 0 0-.4 5.5 11.85 11.85 0 0 1-2.4.3H12.4a.76.76 0 0 0-.4.2.52.52 0 0 0-.2.4c0 .1.3 10.3 11.5 10.9 10.1 0 13.1-7.5 13.7-9.8h.7a6.07 6.07 0 0 0 5.4-2.9.64.64 0 0 0 0-.6 3.6 3.6 0 0 0-3-1.2 13.55 13.55 0 0 0-2 .2 4 4 0 0 0-2.6-3.3z"/></g><g fill="#ff7300"><path d="M30.1,58.2H15.3V55.4H30v2.8Zm-13.9-.8H29.3V56.3H16.2Z"/><path d="M27.3,55.9h-9V53.1h9Zm-8.2-.8h7.3V54H19.1Z"/><path d="M27.3 53.5h-4.2v-2.8h4.2zm-3.4-.8h2.6v-1.1h-2.6zm15.4 8.2H10.2a.43.43 0 0 1-.4-.4c0-.2.2-.5.4-.5h29.1a.43.43 0 0 1 .4.4c0 .4-.2.5-.4.5z"/></g><path d="M16.7 66.5a3.75 3.75 0 0 1-1-.1.41.41 0 0 1 .2-.8 4.11 4.11 0 0 0 3.5-1 .64.64 0 0 1 .6 0 .64.64 0 0 1 0 .6 5.4 5.4 0 0 1-3.3 1.3z" fill="#fff"/></svg>