<svg xmlns="http://www.w3.org/2000/svg" viewBox="0 0 40 80" xmlns:v="https://vecta.io/nano"><path d="M28.3 27.1H11.8a1.94 1.94 0 0 1-2-2v-2.3l.3-.1a2.58 2.58 0 0 0 1.9-2.4 2.35 2.35 0 0 0-1.9-2.3l-.3-.1v-2.3a1.94 1.94 0 0 1 2-2h16.5a1.94 1.94 0 0 1 2 2v2.3l-.3.1a2.56 2.56 0 0 0 0 5l.3.1v2.3a1.83 1.83 0 0 1-2 1.7zm-17.6-3.6v1.6a1.11 1.11 0 0 0 1.1 1.1h16.5a1.11 1.11 0 0 0 1.1-1.1v-1.5a3.56 3.56 0 0 1-2.4-3.2 3.42 3.42 0 0 1 2.4-3.2v-1.5a1.11 1.11 0 0 0-1.1-1.1H11.8a1.11 1.11 0 0 0-1.1 1.1v1.6a3.25 3.25 0 0 1 2.2 3 3.56 3.56 0 0 1-2.2 3.2zm4.5-5.9h.8V24h-.8zm1.8 0h8.1v.8H17zm0 2.9h6.5v.8H17zm0 2.8h4.8v.8H17z" fill="#ccc"/><path d="M28.3 67.3H11.8a1.94 1.94 0 0 1-2-2V63l.3-.1a2.58 2.58 0 0 0 1.9-2.4 2.28 2.28 0 0 0-1.9-2.3l-.3-.1v-2.3a1.94 1.94 0 0 1 2-2h16.5a1.94 1.94 0 0 1 2 2v2.3l-.3.1a2.56 2.56 0 0 0 0 5l.3.1v2.3a1.9 1.9 0 0 1-2 1.7zm-17.6-3.7v1.6a1.11 1.11 0 0 0 1.1 1.1h16.5a1.11 1.11 0 0 0 1.1-1.1v-1.5a3.56 3.56 0 0 1-2.4-3.2 3.42 3.42 0 0 1 2.4-3.2v-1.5a1.11 1.11 0 0 0-1.1-1.1H11.8a1.11 1.11 0 0 0-1.1 1.1v1.6a3.25 3.25 0 0 1 2.2 3 3.56 3.56 0 0 1-2.2 3.2z" fill="#fff"/><path d="M15.2 57.7h.8v6.4h-.8zm1.8 0h8.1v.8H17zm0 3h6.5v.8H17zm0 2.7h4.8v.8H17z" fill="#ff7300"/></svg>