<svg xmlns="http://www.w3.org/2000/svg" viewBox="0 0 46 80" xmlns:v="https://vecta.io/nano"><g fill="#ccc"><path d="M25,13.1A5.56,5.56,0,0,1,30,16l.2.4h2.1l.2,2.8v.5l.5.2c.9.4,2.6,1.3,2.6,3.3a3.9,3.9,0,0,1-3.9,3.9H15a3.9,3.9,0,0,1-3.9-3.9,4.27,4.27,0,0,1,4.3-3.9h2.7l.1-.7a4.22,4.22,0,0,1,.3-1.2l.2-.4-.3-.4a1.74,1.74,0,0,1-.3-1.4A1.69,1.69,0,0,1,19.6,14a2.14,2.14,0,0,1,.6.1l.1.1.3.3.4-.3a6.56,6.56,0,0,1,3.3-.9H25m0-1h-.6a7.57,7.57,0,0,0-3.7,1l-.4-.2a2,2,0,0,0-.7-.1,2.52,2.52,0,0,0-2.4,1.9,2.93,2.93,0,0,0,.4,2.2,3.44,3.44,0,0,0-.3,1.4h-2c-2.6,0-5.1,2.2-5.1,4.7A4.94,4.94,0,0,0,15,28H31.8a4.76,4.76,0,0,0,4.7-4.7,4.26,4.26,0,0,0-3.1-4l-.1-2.9a.68.68,0,0,0-.7-.7H30.8A6.53,6.53,0,0,0,25,12.3Z"/><path d="M19.7 14.7a.9.9 0 1 0 .9.9.9.9 0 0 0-.9-.9zm12.8 1.7h0v10.4h-4.9V16.4h4.9m.2-.8h-5.3a.67.67 0 0 0-.6.7v11.2h6.6v-11c-.1-.6-.4-.9-.7-.9z"/><path d="M26.7,18.8v8H21.8v-8h4.9m.1-.8H21.5a.67.67,0,0,0-.6.7v8.9h6.6V18.7a.68.68,0,0,0-.7-.7Z"/><path d="M20.7 21.8v5h-4.9v-4.9h4.9m.2-.9h-5.3a.67.67 0 0 0-.6.7v5.9h6.6v-5.9a.85.85 0 0 0-.7-.7zm7.3-3.8h3.5v2h-3.5zm0 3h3.5v2h-3.5zm0 3.3h3.5v2h-3.5zm-5.9-3.3h3.5v2h-3.5zm0 3.3h3.5v2h-3.5zm-5.8 0H20v2h-3.5z"/></g><g fill="#fff"><path d="M24.8,53a5.56,5.56,0,0,1,5,2.9l.2.4h2.1l.2,2.8v.5l.5.2c.9.4,2.6,1.3,2.6,3.3A3.9,3.9,0,0,1,31.5,67H14.8a3.9,3.9,0,0,1-3.9-3.9,4.27,4.27,0,0,1,4.3-3.9h2.7l.1-.7a4.22,4.22,0,0,1,.3-1.2l.2-.4-.3-.4a1.74,1.74,0,0,1-.3-1.4,1.69,1.69,0,0,1,1.5-1.2,2.14,2.14,0,0,1,.6.1l.1.1.3.3.4-.3a6.56,6.56,0,0,1,3.3-.9h.7m0-1.1h-.6a7.57,7.57,0,0,0-3.7,1l-.4-.2a1.27,1.27,0,0,0-.6-.1,2.52,2.52,0,0,0-2.4,1.9,2.93,2.93,0,0,0,.4,2.2,3.44,3.44,0,0,0-.3,1.4h-2c-2.6,0-5.1,2.2-5.1,4.7a4.76,4.76,0,0,0,4.7,4.7H31.6A4.76,4.76,0,0,0,36.3,63a4.26,4.26,0,0,0-3.1-4l-.1-2.9a.68.68,0,0,0-.7-.7H30.6a6.73,6.73,0,0,0-5.8-3.3Z"/><path d="M19.5 54.5a.9.9 0 1 0 .9.9.9.9 0 0 0-.9-.9zm12.8 1.8h0v10.3h-4.9V56.3h4.9m.2-.9h-5.3a.67.67 0 0 0-.6.7v11.2h6.6V56.2c-.1-.5-.4-.8-.7-.8z"/><path d="M26.5,58.6v8H21.6v-8h4.9m.1-.8H21.3a.67.67,0,0,0-.6.7v8.9h6.6V58.5c.1-.4-.3-.7-.7-.7Z"/><path d="M20.6,61.6v5H15.7V61.7h4.9m.2-.9H15.5a.67.67,0,0,0-.6.7v5.9h6.6V61.5c-.1-.3-.4-.7-.7-.7Z"/></g><path d="M28.1 57.1h3.5v2h-3.5zm0 3h3.5v2h-3.5zm0 3.3h3.5v2h-3.5zm-6-3.3h3.5v2h-3.5zm0 3.3h3.5v2h-3.5zm-5.8 0h3.5v2h-3.5z" fill="#ff7300"/></svg>