<svg xmlns="http://www.w3.org/2000/svg" viewBox="0 0 39 80" xmlns:v="https://vecta.io/nano"><g fill="#ccc"><path d="M26.8 28H10a.43.43 0 0 1-.4-.4V15.2a2.07 2.07 0 0 1 2-2h14a.37.37 0 0 1 .3.1l2.8 3.1a.37.37 0 0 1 .1.3v9.4a2.06 2.06 0 0 1-2 1.9zm-16.4-.8h16.4a1.11 1.11 0 0 0 1.1-1.1v-9.3l-2.6-2.9H11.5a1.11 1.11 0 0 0-1.1 1.1v12.2zm7.4-5.1a1.82 1.82 0 0 1-.6 1.4 3 3 0 0 1-1.9.7v.7h-.8v-.7a8 8 0 0 1-2.4-.4v-1.2a3.37 3.37 0 0 0 1.2.4 6 6 0 0 0 1.2.2V21l-.5-.2a2.84 2.84 0 0 1-1.4-.9 1.59 1.59 0 0 1-.4-1.2 1.61 1.61 0 0 1 .6-1.3 3.8 3.8 0 0 1 1.8-.6V16h.8v.7a6.35 6.35 0 0 1 2.3.5l-.4 1a5.85 5.85 0 0 0-1.9-.4V20l.4.2a4.89 4.89 0 0 1 1.5.9c.4.1.5.5.5 1zm-4.2-3.5a.76.76 0 0 0 .2.5 2.15 2.15 0 0 0 .7.4v-1.9a.91.91 0 0 0-.7.3 1.45 1.45 0 0 0-.2.7zm2.8 3.6a.76.76 0 0 0-.2-.5 2.93 2.93 0 0 0-.8-.4v1.9c.7-.2 1-.5 1-1zm2.8-4.1h6.3v.8h-6.3zm0 2.1h6.3v.8h-6.3zm0 2.1h3.5v.8h-3.5z"/><path d="M28.3,17.3H25.2a.43.43,0,0,1-.4-.4v-3h.8v2.6h2.7Z"/></g><path d="M26.8 68H10a.43.43 0 0 1-.4-.4V55.1a2.07 2.07 0 0 1 2-2h14a.37.37 0 0 1 .3.1l2.8 3.1a.37.37 0 0 1 .1.3V66a2.07 2.07 0 0 1-2 2zm-16.4-.8h16.4a1.11 1.11 0 0 0 1.1-1.1v-9.3l-2.6-2.9H11.5a1.11 1.11 0 0 0-1.1 1.1v12.2z" fill="#fff"/><path d="M17.8 62a1.82 1.82 0 0 1-.6 1.4 3 3 0 0 1-1.9.7v.7h-.8v-.7a8 8 0 0 1-2.4-.4v-1.2a3.37 3.37 0 0 0 1.2.4 6 6 0 0 0 1.2.2V61l-.5-.2a2.84 2.84 0 0 1-1.4-.9 1.59 1.59 0 0 1-.4-1.2 1.61 1.61 0 0 1 .6-1.3 3.8 3.8 0 0 1 1.8-.6v-.7h.8v.7a6.35 6.35 0 0 1 2.3.5l-.4 1a5.85 5.85 0 0 0-1.9-.4V60l.4.2a4.89 4.89 0 0 1 1.5.9c.4.1.5.5.5.9zm-4.2-3.5a.76.76 0 0 0 .2.5 2.15 2.15 0 0 0 .7.4v-1.9a.91.91 0 0 0-.7.3 2.54 2.54 0 0 0-.2.7zm2.8 3.6a.76.76 0 0 0-.2-.5 2.93 2.93 0 0 0-.8-.4V63c.7-.1 1-.4 1-.9zm2.8-4h6.3v.8h-6.3zm0 2.1h6.3v.8h-6.3zm0 2h3.5v.8h-3.5z" fill="#ff7300"/><path d="M28.3,57.3H25.2a.43.43,0,0,1-.4-.4v-3h.8v2.6h2.7Z" fill="#fff"/></svg>