<svg xmlns="http://www.w3.org/2000/svg" viewBox="0 0 39 80" xmlns:v="https://vecta.io/nano"><path d="M27.3 27.3H11a1.43 1.43 0 0 1-1.4-1.4V14.3a1.43 1.43 0 0 1 1.4-1.4h16.4a1.43 1.43 0 0 1 1.4 1.4v11.6a1.52 1.52 0 0 1-1.5 1.4zM11 13.6a.58.58 0 0 0-.6.6v11.6a.58.58 0 0 0 .6.6h16.3a.67.67 0 0 0 .7-.6V14.3a.58.58 0 0 0-.6-.6c0-.1-16.4-.1-16.4-.1zm14.6 1.9V19H12.5v-3.5h13.1m.3-.7h-14v4.7h14.4v-4.3c.1-.1-.1-.4-.4-.4zM18.2 21v3.5h-5.7V21h5.7m.5-.6h-6.8v4.7h6.9v-4.6a.1.1 0 0 0-.1-.1zm1.2 0h6.3v.7h-6.3zm0 1.6h6.3v.7h-6.3zm0 1.6h2.2v.7h-2.2z" fill="#ccc"/><path d="M27.3 67.2H11a1.43 1.43 0 0 1-1.4-1.4V54.1a1.43 1.43 0 0 1 1.4-1.4h16.4a1.43 1.43 0 0 1 1.4 1.4v11.6a1.54 1.54 0 0 1-1.5 1.5zM11 53.5a.58.58 0 0 0-.6.6v11.6a.58.58 0 0 0 .6.6h16.3a.67.67 0 0 0 .7-.6V54.1a.58.58 0 0 0-.6-.6z" fill="#fff"/><path d="M25.6 55.3v3.5H12.5v-3.5h13.1m.3-.7h-14v4.7h14.4V55c.1-.1-.1-.4-.4-.4zm-7.7 6.2v3.5h-5.7v-3.5h5.7m.5-.5h-6.8V65h6.9v-4.6a.1.1 0 0 0-.1-.1zm1.2 0h6.3v.7h-6.3zm0 1.5h6.3v.7h-6.3zm0 1.7h2.2v.7h-2.2z" fill="#ff7300"/></svg>