<svg xmlns="http://www.w3.org/2000/svg" xmlns:xlink="http://www.w3.org/1999/xlink" viewBox="0 0 41 80" xmlns:v="https://vecta.io/nano"><g fill="#ccc"><use xlink:href="#B"/><path d="M20.7 28.5a8.58 8.58 0 0 1-5.9-2.4.35.35 0 0 1 .5-.5 7.91 7.91 0 0 0 5.4 2.2 6.47 6.47 0 0 0 5.1-2.3.35.35 0 0 1 .5.5 7.57 7.57 0 0 1-5.6 2.5z"/><use xlink:href="#C"/><path d="M19.1 21.5h0l.4-1.3.5-2h.8l.4 2 .3 1.5h0l.7-3.5h1.1L22 22.5h-1l-.4-1.8-.3-1.3h0c-.1.4-.4 1.3-.4 1.3l-.5 1.8h-1l-1.3-4.3h1.3z"/><use xlink:href="#D"/></g><g fill="#fff"><use xlink:href="#B" x="0.1" y="39.8"/><path d="M20.8 68.2a8.58 8.58 0 0 1-5.9-2.4.35.35 0 0 1 .5-.5 7.91 7.91 0 0 0 5.4 2.2 6.47 6.47 0 0 0 5.1-2.3.35.35 0 0 1 .5.5 7.22 7.22 0 0 1-5.6 2.5z"/></g><g fill="#ff7300"><use xlink:href="#C" x="0.1" y="39.7"/><path d="M19.2 61.2h0l.4-1.3.5-2h.8l.4 2 .3 1.5h0l.7-3.5h1.1l-1.3 4.3h-1l-.4-1.8-.3-1.3h0c-.1.4-.4 1.3-.4 1.3l-.5 1.8h-1l-1.3-4.3h1.3z"/><use xlink:href="#D" x="0.1" y="39.7"/></g><defs ><path id="B" d="M13.7 16.6h-.2c-.2-.1-.2-.3-.1-.5a8.16 8.16 0 0 1 7.2-4.1 8.26 8.26 0 0 1 7.1 4 .36.36 0 0 1-.6.4 7.34 7.34 0 0 0-6.5-3.6 7.55 7.55 0 0 0-6.5 3.7c-.2 0-.3.1-.4.1z"/><path id="C" d="M26 21.5h0l.4-1.3.5-2h.8l.4 2 .5 1.5h0l.7-3.5h1.1l-1.3 4.3h-1l-.4-1.8-.3-1.3h0c-.1.4-.4 1.3-.4 1.3l-.5 1.8h-1l-1.3-4.3h1.1z"/><path id="D" d="M12.2 21.5h0l.4-1.3.5-2h.8l.4 2 .3 1.5h0l.7-3.5h1.1l-1.3 4.3h-1l-.4-1.8-.3-1.3h0c-.1.4-.4 1.3-.4 1.3l-.5 1.8h-1l-1.3-4.3h1.1z"/></defs></svg>