<svg xmlns="http://www.w3.org/2000/svg" xmlns:xlink="http://www.w3.org/1999/xlink" viewBox="0 0 39 80" xmlns:v="https://vecta.io/nano"><g fill="#ccc"><path d="M19.1 30.2a9.7 9.7 0 0 1-6.8-2.8 9.2 9.2 0 0 1-2.8-6.9 9.56 9.56 0 0 1 9.6-9.5h.2a9.17 9.17 0 0 1 6.7 2.9 9.51 9.51 0 0 1 2.8 6.9 9.92 9.92 0 0 1-9.7 9.4zm0-18.4a8.55 8.55 0 0 0-6.1 2.5 8.63 8.63 0 0 0-2.7 6.3 9.17 9.17 0 0 0 2.5 6.4A8.91 8.91 0 0 0 28 20.9a8.29 8.29 0 0 0-2.5-6.3 8.26 8.26 0 0 0-6.2-2.7h-.2v-.1zm5.1 3.2a.6.6 0 0 0-.4.1 1.42 1.42 0 0 0-.9 1.5 3 3 0 0 0 .4 1l.6 1a3.51 3.51 0 0 1 .2 2.7l-.3 1.1a12.24 12.24 0 0 1-.9 2.7c0 .1 0 .1-.1.2L20 17.1h.5c.2 0 .3 0 .4-.1a.3.3 0 0 0 0-.6c-.4 0-.8.1-1.2.1h-1.5a4.87 4.87 0 0 0-1.2-.1.35.35 0 0 0-.3.5l.2.2c.2 0 .5.1.7.1s.2 0 .2.1l1.1 3.1v.2l-1.5 4.8v.1l-2.8-8.2h.5c.2 0 .3 0 .4-.1s.3-.2.2-.3a.32.32 0 0 0-.3-.3c-.5 0-.9.1-1.5.1h-1A7.23 7.23 0 0 1 24.2 15zm-2.6 12.9a8.36 8.36 0 0 1-4.7.1l2.3-6.7q1.35 3.3 2.4 6.6zM12 17.5c1.2 3.4 2.5 6.7 3.7 10a7 7 0 0 1-3.8-4.3 8 8 0 0 1 .1-5.7z"/><use xlink:href="#B"/></g><path d="M19.1 70.4a9.7 9.7 0 0 1-6.8-2.8 9.2 9.2 0 0 1-2.8-6.9 9.56 9.56 0 0 1 9.6-9.5h.2a9.17 9.17 0 0 1 6.7 2.9 9.51 9.51 0 0 1 2.8 6.9 10 10 0 0 1-9.7 9.4zm0-18.5a8.55 8.55 0 0 0-6.1 2.5 8.63 8.63 0 0 0-2.7 6.3 9.17 9.17 0 0 0 2.5 6.4A8.91 8.91 0 0 0 28 61a8.29 8.29 0 0 0-2.5-6.3 8.26 8.26 0 0 0-6.2-2.7h-.2v-.1z" fill="#fff"/><g fill="#ff7300"><path d="M24.2 55.1a.6.6 0 0 0-.4.1 1.42 1.42 0 0 0-.9 1.5 3 3 0 0 0 .4 1l.6 1a3.51 3.51 0 0 1 .2 2.7l-.3 1.1a12.24 12.24 0 0 1-.9 2.7c0 .1 0 .1-.1.2L20 57.2h.5c.2 0 .3 0 .4-.1a.3.3 0 0 0 0-.6c-.4 0-.8.1-1.2.1h-1.5a4.87 4.87 0 0 0-1.2-.1.35.35 0 0 0-.3.5l.2.2c.2 0 .5.1.7.1s.2 0 .2.1l1.1 3.1v.2l-1.5 4.8v.1l-2.8-8.2h.5c.2 0 .3 0 .4-.1s.3-.2.2-.3a.32.32 0 0 0-.3-.3c-.5 0-.9.1-1.5.1h-1a7.23 7.23 0 0 1 11.3-1.7zm-2.6 13a8.36 8.36 0 0 1-4.7.1l2.3-6.7 2.4 6.6zM12 57.7c1.2 3.4 2.5 6.7 3.7 10a7 7 0 0 1-3.8-4.3 8 8 0 0 1 .1-5.7z"/><use xlink:href="#B" y="40.2"/></g><defs ><path id="B" d="M25.8 17a7.68 7.68 0 0 1-2.9 10.3 1.42 1.42 0 0 0 .2-.6l2.1-6.1a9.83 9.83 0 0 0 .5-1.6 6.73 6.73 0 0 0 .1-2z"/></defs></svg>