<svg xmlns="http://www.w3.org/2000/svg" viewBox="0 0 41 80" xmlns:v="https://vecta.io/nano"><path d="M12.2 13.7a2.07 2.07 0 0 1 1.9 1.5l2.2 7.1 1.2-3.9 1-3.4a1.75 1.75 0 0 1 1.8-1.3h0a2 2 0 0 1 1.9 1.3l1.9 5.8c.1.4.3.8.5 1.4l2.2-7c.3-.8.7-1.5 1.6-1.6h.2a1.73 1.73 0 0 1 1.8 2.3c-1.1 3.5-2.5 6.9-3.7 10.4a4.35 4.35 0 0 1-.4.7 2 2 0 0 1-1.6.7 2.3 2.3 0 0 1-2-1.3c-.7-1.9-1.2-3.7-1.9-5.6-.1-.2-.1-.4-.3-.8-.7 2.2-1.3 4.2-2.1 6.2a2 2 0 0 1-2 1.5 2.92 2.92 0 0 1-.9-.2 3.25 3.25 0 0 1-1.3-1.3c-1.2-3.3-2.5-6.6-3.6-10-.4-1.3 0-2.2 1-2.5.2.1.4 0 .6 0m0-.7h0a2 2 0 0 0-.8.1 2.49 2.49 0 0 0-1.5 1.1 3.13 3.13 0 0 0 0 2.4c1.2 3.7 2.5 6.9 3.6 10a4 4 0 0 0 1.6 1.8 2.66 2.66 0 0 0 1.2.3 2.85 2.85 0 0 0 2.7-2.1c.4-1.3.8-2.6 1.3-3.9 0 .1.1.2.1.3.4 1.2.8 2.6 1.3 3.9a2.89 2.89 0 0 0 4.9.9 2.36 2.36 0 0 0 .6-.9l.7-2.2 2.9-8.3a2.38 2.38 0 0 0-.3-2.3 2.46 2.46 0 0 0-2.2-1h-.2a2.53 2.53 0 0 0-2.4 2.2c-.4 1.5-.9 3.1-1.4 4.6v-.1L22.8 15a2.59 2.59 0 0 0-2.6-2 2.51 2.51 0 0 0-2.6 1.9c-.2.6-.4 1.3-.6 2-.1.5-.3.9-.4 1.4s-.3 1-.5 1.5c-.5-1.6-.9-3.2-1.4-4.7a2.46 2.46 0 0 0-2.5-2.1z" fill="#ccc"/><path d="M12.2 53.5a2.07 2.07 0 0 1 1.9 1.5l2.2 7.1 1.2-3.9 1-3.4a1.75 1.75 0 0 1 1.8-1.3h0a2 2 0 0 1 1.9 1.3l1.9 5.8c.1.4.3.8.5 1.4l2.2-7c.3-.8.7-1.5 1.6-1.6h.2a1.73 1.73 0 0 1 1.8 2.3c-1.1 3.5-2.5 6.9-3.7 10.4a4.35 4.35 0 0 1-.4.7 2 2 0 0 1-1.6.7 2.3 2.3 0 0 1-2-1.3c-.7-1.9-1.2-3.7-1.9-5.6-.1-.2-.1-.4-.3-.8-.7 2.2-1.3 4.2-2.1 6.2a2 2 0 0 1-2 1.5 2.92 2.92 0 0 1-.9-.2 3.25 3.25 0 0 1-1.3-1.3c-1.2-3.3-2.5-6.6-3.6-10-.4-1.3 0-2.2 1-2.5.2.2.4 0 .6 0m0-.7h0a2 2 0 0 0-.8.1A2.49 2.49 0 0 0 9.9 54a3.13 3.13 0 0 0 0 2.4c1.2 3.7 2.5 6.9 3.6 10a4 4 0 0 0 1.6 1.8 2.66 2.66 0 0 0 1.2.3 2.85 2.85 0 0 0 2.7-2.1c.4-1.3.8-2.6 1.3-3.9 0 .1.1.2.1.3.4 1.2.8 2.6 1.3 3.9a2.89 2.89 0 0 0 4.9.9 2.36 2.36 0 0 0 .6-.9l.7-2.2 2.9-8.3a2.38 2.38 0 0 0-.3-2.3 2.72 2.72 0 0 0-2.2-1h-.2a2.53 2.53 0 0 0-2.4 2.2c-.4 1.5-.9 3.1-1.4 4.6v-.1l-1.5-4.8a2.59 2.59 0 0 0-2.6-2 2.51 2.51 0 0 0-2.6 1.9c-.2.6-.4 1.3-.6 2-.1.5-.3.9-.4 1.4s-.3 1-.5 1.5c-.5-1.6-.9-3.2-1.4-4.7a2.46 2.46 0 0 0-2.5-2.1z" fill="#ff7300"/></svg>