<svg xmlns="http://www.w3.org/2000/svg" viewBox="0 0 42 80" xmlns:v="https://vecta.io/nano"><path d="M21.3 13.3a12.9 12.9 0 0 0-5.3 1.2h-.1a11.52 11.52 0 0 0-5.9 10 28.5 28.5 0 0 0 .3 2.9h21.8a13.58 13.58 0 0 0 .3-2.9 11 11 0 0 0-11.1-11.2zm10.2 13.3H24a2.69 2.69 0 0 0-.8-1.8l1.5-5.3a.61.61 0 0 0-.3-.7c-.3-.2-.6 0-.8.3s-1.8 3.2-2.9 5.1a2.8 2.8 0 0 0-2 2.3h-7.6a13.61 13.61 0 0 1-.2-2.1 2.77 2.77 0 0 1 .1-.9c.2.2.3.2.4.2h1.3a.68.68 0 0 0 .7-.7h0a.68.68 0 0 0-.7-.7h-1.3a.37.37 0 0 0-.3.1 8.36 8.36 0 0 1 1.2-3.1l.9.5a.66.66 0 0 0 .9-.3v-.1a.66.66 0 0 0-.3-.9l-.7-.3a9.3 9.3 0 0 1 2.3-2.1l.8.9a.37.37 0 0 0 .6 0l.3-.3a.48.48 0 0 0 .1-.6l-.5-.9a9.16 9.16 0 0 1 3.7-.9v1a.35.35 0 0 0 .5.3h.5a.46.46 0 0 0 .5-.4l-.1-1a7.13 7.13 0 0 1 3.6.9l-.5.5c-.2.2-.1.4.1.6l.3.3c.2.2.5.2.6 0l.8-.9a7.59 7.59 0 0 1 2.3 2.1l-.9.4a.45.45 0 0 0-.2.6l.2.7c.2.3.3.3.5.3l1.2-.5a14.28 14.28 0 0 1 1.2 3.1c-.1 0-.2-.1-.3-.1h-1.2a.68.68 0 0 0-.7.7v.1a.68.68 0 0 0 .7.7h1.3c.2 0 .3-.1.5-.2 0 .3.1.6.1.9a4.16 4.16 0 0 1 .1 2.2z" fill="#ccc"/><path d="M21.3 53.1a12.9 12.9 0 0 0-5.3 1.2h-.1a11.52 11.52 0 0 0-5.9 10 28.5 28.5 0 0 0 .3 2.9h21.8a13.58 13.58 0 0 0 .3-2.9 11 11 0 0 0-11.1-11.2zm10.2 13.3H24a2.69 2.69 0 0 0-.8-1.8l1.5-5.3a.61.61 0 0 0-.3-.7c-.3-.2-.6 0-.8.3s-1.8 3.2-2.9 5.1a2.8 2.8 0 0 0-2 2.3h-7.6a13.61 13.61 0 0 1-.2-2.1 2.77 2.77 0 0 1 .1-.9c.2.2.3.2.4.2h1.3a.68.68 0 0 0 .7-.7v-.1a.68.68 0 0 0-.7-.7h-1.3a.37.37 0 0 0-.3.1 8.36 8.36 0 0 1 1.2-3.1l.9.5a.66.66 0 0 0 .9-.3v-.1a.66.66 0 0 0-.3-.9l-.7-.3a9.3 9.3 0 0 1 2.3-2.1l.8.9a.38.38 0 0 0 .6 0l.3-.3a.48.48 0 0 0 .1-.6l-.5-.9a9.16 9.16 0 0 1 3.7-.9v1a.35.35 0 0 0 .5.3h.5a.46.46 0 0 0 .5-.4l-.1-1a7.13 7.13 0 0 1 3.6.9l-.5.5c-.2.2-.1.4.1.6l.3.3c.2.2.5.2.6 0l.8-.9a7.59 7.59 0 0 1 2.3 2.1l-.9.4a.45.45 0 0 0-.2.6l.2.7c.2.3.3.3.5.3l1.2-.5A14.28 14.28 0 0 1 31 62c-.1 0-.2-.1-.3-.1h-1.2a.68.68 0 0 0-.7.7v.1a.68.68 0 0 0 .7.7h1.3c.2 0 .3-.1.5-.2 0 .3.1.6.1.9a4.61 4.61 0 0 1 .1 2.3z" fill="#fff"/><path d="M23.2 64.6l1.5-5.3a.61.61 0 0 0-.3-.7c-.3-.2-.6 0-.8.3s-1.8 3.2-2.9 5.1a3 3 0 0 0-2 2.2h5.2c.1-.5-.2-1-.7-1.6z" fill="#ff7300"/></svg>