<?xml version="1.0" encoding="utf-8"?>
<!-- Generator: Adobe Illustrator 21.0.2, SVG Export Plug-In . SVG Version: 6.00 Build 0)  -->
<svg version="1.1" id="Layer_1" xmlns="http://www.w3.org/2000/svg" xmlns:xlink="http://www.w3.org/1999/xlink" x="0px" y="0px"
	 viewBox="0 0 800 80" style="enable-background:new 0 0 800 80;" xml:space="preserve">
<style type="text/css">
	.st0{fill:#CCCCCC;}
	.st1{fill:#FFFFFF;}
	.st2{fill:#FF7300;}
</style>
<image style="display:none;overflow:visible;" width="800" height="80" xlink:href="C:\Users\HANIF\AppData\Roaming\Skype\iksa.boyz\media_messaging\media_cache_v3\^E96C7C8FF7E56852D28CF8F1D1D135A6655D522D47558D3FEB^pimgpsh_fullsize_distr.png" >
</image>
<g>
	<g>
		<g>
			<g>
				<g>
					<path class="st0" d="M626,12.4c4.3,0,7.9,3.6,7.9,7.9c0,2.1-0.7,4-2.3,5.6c-1.5,1.5-3.5,2.4-5.8,2.4c-4.3,0-7.9-3.6-7.9-7.9
						S621.7,12.4,626,12.4 M626,11.6c-4.7,0-8.8,4-8.8,8.8s4,8.8,8.8,8.8c4.9,0,8.8-4,8.8-8.8C634.7,15.6,630.7,11.6,626,11.6
						L626,11.6z"/>
				</g>
			</g>
		</g>
	</g>
	<g>
		<g>
			<g>
				
					<rect x="634.8" y="15.3" transform="matrix(0.8763 -0.4818 0.4818 0.8763 70.9907 308.0652)" class="st0" width="1.1" height="1"/>
			</g>
		</g>
	</g>
	<g>
		<g>
			<g>
				
					<rect x="625.3" y="9.6" transform="matrix(3.648657e-02 -0.9993 0.9993 3.648657e-02 593.0475 635.3214)" class="st0" width="1.3" height="0.9"/>
			</g>
		</g>
	</g>
	<g>
		<g>
			<g>
				
					<rect x="625.4" y="30.2" transform="matrix(3.648657e-02 -0.9993 0.9993 3.648657e-02 572.5444 655.1719)" class="st0" width="1.3" height="0.9"/>
			</g>
		</g>
	</g>
	<g>
		<g>
			<g>
				<rect x="635" y="23.5" transform="matrix(0.4754 -0.8798 0.8798 0.4754 312.12 571.7806)" class="st0" width="1" height="1.3"/>
			</g>
		</g>
	</g>
	<g>
		<g>
			<g>
				
					<rect x="616.3" y="14.8" transform="matrix(0.4403 -0.8979 0.8979 0.4403 331.3799 562.484)" class="st0" width="1" height="1.3"/>
			</g>
		</g>
	</g>
	<g>
		<g>
			<g>
				
					<rect x="615.7" y="23.7" transform="matrix(0.8939 -0.4483 0.4483 0.8939 54.5595 278.8914)" class="st0" width="1.3" height="0.9"/>
			</g>
		</g>
	</g>
	<g>
		<g>
			<g>
				<g>
					<path class="st0" d="M625.7,23.5v-2.2l-0.6-0.3c-0.7-0.3-1.3-0.6-1.6-1c-0.4-0.4-0.6-1-0.6-1.5s0.5-1.4,0.9-1.8
						s0.7-0.6,2.1-0.7v-1.1h0.9V16c0.9,0,1.8,0.3,2.7,0.4l-0.4,1.3c-0.7-0.3-1.3-0.4-2.2-0.4v2.5l0,0c0.9,0.4,1.9,0.9,2.2,1.3
						c0.4,0.3,0.6,0.8,0.6,1.4s-0.3,1.3-0.7,1.6c-0.4,0.3-1.1,0.7-2.2,0.7v1.4h-0.9V25c-1.1,0-2.1-0.3-2.8-0.4v-1.4
						C624.3,23.6,625.7,23.5,625.7,23.5z M624.6,18.4c0,0.8,1.2,1,1.2,1v-2.1C625.3,17.3,624.6,17.6,624.6,18.4z M627.8,22.7
						c-0.1-0.9-1.1-1.1-1.1-1.1v1.9C627.7,23.4,627.8,22.7,627.8,22.7z"/>
				</g>
			</g>
		</g>
	</g>
</g>
<g>
	<g>
		<g>
			<g>
				<g>
					<path class="st0" d="M425.1,29.2c-2.6,0-4.9-1-6.8-2.8c-1.9-1.8-2.8-4.2-2.8-6.9c0-2.5,1-4.9,2.9-6.8c1.9-1.8,4.2-2.7,6.7-2.7
						h0.2c2.5,0,4.9,1,6.7,2.9c1.9,1.9,2.8,4.3,2.8,6.9C434.5,25,430.2,29.2,425.1,29.2z M425.1,10.8c-2.2,0-4.4,0.8-6.1,2.5
						c-1.8,1.8-2.7,3.9-2.7,6.3c0,2.5,0.9,4.7,2.5,6.4c1.6,1.6,3.9,2.6,6.3,2.6c4.7,0,8.8-3.9,8.9-8.7c0.1-2.4-0.8-4.6-2.5-6.3
						c-1.6-1.8-3.9-2.7-6.2-2.7h-0.2V10.8z"/>
				</g>
			</g>
		</g>
	</g>
	<g>
		<g>
			<g>
				<path class="st0" d="M430.2,14c-0.2,0-0.2,0-0.4,0.1c-0.6,0.2-1,0.9-0.9,1.5c0.1,0.4,0.2,0.7,0.4,1c0.2,0.3,0.4,0.7,0.6,1
					c0.4,0.8,0.5,1.6,0.2,2.7c-0.1,0.4-0.2,0.8-0.3,1.1c-0.2,0.9-0.5,1.9-0.9,2.7c0,0.1,0,0.1-0.1,0.2c-0.9-2.7-1.9-5.5-2.8-8.2
					c0.2,0,0.3,0,0.5,0s0.3,0,0.4-0.1c0.2,0,0.3-0.2,0.3-0.3s-0.1-0.3-0.3-0.3c-0.4,0-0.8,0.1-1.2,0.1c-0.5,0-1,0-1.5,0
					c-0.4-0.1-0.8-0.1-1.2-0.1c-0.2,0-0.4,0.2-0.3,0.5c0.1,0.1,0.2,0.2,0.2,0.2c0.2,0,0.5,0.1,0.7,0.1c0.1,0,0.2,0,0.2,0.1
					c0.4,1,0.7,2.1,1.1,3.1c0,0.1,0,0.1,0,0.2c-0.5,1.5-1.1,3.3-1.5,4.8c0,0,0,0,0,0.1c-0.9-2.8-1.9-5.5-2.8-8.2c0.2,0,0.3,0,0.5,0
					c0.2,0,0.3,0,0.4-0.1c0.2,0,0.3-0.2,0.2-0.3c0-0.2-0.2-0.3-0.3-0.3c-0.5,0-0.9,0.1-1.5,0.1c-0.3,0-0.7,0-1,0
					C421.2,11.5,426.9,10.8,430.2,14z"/>
			</g>
		</g>
		<g>
			<g>
				<path class="st0" d="M427.6,26.9c-1.4,0.5-3.3,0.5-4.7,0.1c0.8-2.3,1.5-4.4,2.3-6.7C426.1,22.5,426.9,24.7,427.6,26.9z"/>
			</g>
		</g>
		<g>
			<g>
				<path class="st0" d="M418,16.5c1.2,3.4,2.5,6.7,3.7,10c-1.9-0.9-3.1-2.3-3.8-4.3C417.2,20.3,417.3,18.5,418,16.5z"/>
			</g>
		</g>
		<g>
			<g>
				<path class="st0" d="M431.8,16c1.9,3.4,0.9,8-2.9,10.3c0.1-0.2,0.2-0.4,0.2-0.6c0.7-2,1.3-4,2.1-6.1c0.2-0.5,0.4-1.1,0.5-1.6
					C431.8,17.3,431.9,16.7,431.8,16z"/>
			</g>
		</g>
	</g>
</g>
<g>
	<g>
		<path class="st0" d="M682.8,27H666c-0.2,0-0.4-0.2-0.4-0.4V14.2c0-1,0.9-2,2-2h14c0.1,0,0.2,0,0.3,0.1l2.8,3.1
			c0.1,0.1,0.1,0.2,0.1,0.3v9.4C684.8,26.1,683.8,27,682.8,27z M666.4,26.2h16.4c0.6,0,1.1-0.5,1.1-1.1v-9.3l-2.6-2.9h-13.8
			c-0.6,0-1.1,0.5-1.1,1.1V26.2z"/>
	</g>
	<g>
		<g>
			<path class="st0" d="M673.8,21.1c0,0.6-0.2,1-0.6,1.4c-0.4,0.4-1,0.6-1.9,0.7v0.7h-0.8v-0.7c-0.9,0-1.8-0.2-2.4-0.4v-1.2
				c0.3,0.2,0.7,0.3,1.2,0.4c0.5,0.1,0.8,0.2,1.2,0.2V20l-0.5-0.2c-0.6-0.2-1.1-0.5-1.4-0.9c-0.3-0.3-0.4-0.7-0.4-1.2
				c0-0.5,0.2-1,0.6-1.3c0.4-0.3,1-0.5,1.8-0.6V15h0.8v0.7c0.8,0,1.5,0.2,2.3,0.5l-0.4,1c-0.6-0.2-1.2-0.4-1.9-0.4V19l0.4,0.2
				c0.7,0.3,1.2,0.6,1.5,0.9C673.7,20.2,673.8,20.6,673.8,21.1z M669.6,17.6c0,0.2,0.1,0.4,0.2,0.5c0.1,0.1,0.4,0.3,0.7,0.4v-1.9
				c-0.3,0-0.5,0.1-0.7,0.3C669.7,17.1,669.6,17.3,669.6,17.6z M672.4,21.2c0-0.2-0.1-0.4-0.2-0.5c-0.2-0.1-0.4-0.3-0.8-0.4v1.9
				C672.1,22,672.4,21.7,672.4,21.2z"/>
		</g>
	</g>
	<g>
		<rect x="675.2" y="17.1" class="st0" width="6.3" height="0.8"/>
	</g>
	<g>
		<rect x="675.2" y="19.2" class="st0" width="6.3" height="0.8"/>
	</g>
	<g>
		<rect x="675.2" y="21.3" class="st0" width="3.5" height="0.8"/>
	</g>
	<g>
		<path class="st0" d="M684.3,16.3h-3.1c-0.2,0-0.4-0.2-0.4-0.4v-3h0.8v2.6h2.7V16.3z"/>
	</g>
</g>
<g>
	<g>
		<g>
			<g>
				<path class="st0" d="M324.3,13.3c-2,0-3.7,0.5-5.3,1.2c0,0,0,0-0.1,0c-3.5,2-5.9,5.7-5.9,10c0,0.9,0.2,2,0.3,2.9h21.8
					c0.2-0.9,0.3-1.9,0.3-2.9C335.6,18.3,330.5,13.3,324.3,13.3z M334.5,26.6H327c0-0.7-0.3-1.2-0.8-1.8l1.5-5.3
					c0.1-0.3-0.1-0.6-0.3-0.7c-0.3-0.2-0.6,0-0.8,0.3c-0.1,0.2-1.8,3.2-2.9,5.1c-1,0.3-1.9,1.2-2,2.3h-7.6c-0.1-0.7-0.2-1.3-0.2-2.1
					c0-0.3,0-0.6,0.1-0.9c0.2,0.2,0.3,0.2,0.4,0.2h1.3c0.4,0,0.7-0.3,0.7-0.7V23c0-0.4-0.3-0.7-0.7-0.7h-1.3c-0.1,0-0.2,0-0.3,0.1
					c0.2-1.1,0.6-2.2,1.2-3.1l0.9,0.5c0.3,0.2,0.8,0,0.9-0.3v-0.1c0.2-0.3,0-0.8-0.3-0.9l-0.7-0.3c0.6-0.8,1.4-1.5,2.3-2.1l0.8,0.9
					c0.2,0.2,0.4,0.2,0.6,0l0.3-0.3c0.2-0.2,0.2-0.5,0.1-0.6l-0.5-0.9c1.1-0.5,2.4-0.9,3.7-0.9v1c0,0.2,0.2,0.4,0.5,0.3h0.5
					c0.3,0,0.5-0.2,0.5-0.4l-0.1-1c1.3,0,2.6,0.3,3.6,0.9l-0.5,0.5c-0.2,0.2-0.1,0.4,0.1,0.6l0.3,0.3c0.2,0.2,0.5,0.2,0.6,0l0.8-0.9
					c0.9,0.5,1.6,1.2,2.3,2.1l-0.9,0.4c-0.2,0.1-0.3,0.3-0.2,0.6l0.2,0.7c0.2,0.3,0.3,0.3,0.5,0.3l1.2-0.5c0.5,0.9,0.9,2,1.2,3.1
					c-0.1,0-0.2-0.1-0.3-0.1h-1.2c-0.4,0-0.7,0.3-0.7,0.7V23c0,0.4,0.3,0.7,0.7,0.7h1.3c0.2,0,0.3-0.1,0.5-0.2
					c0,0.3,0.1,0.6,0.1,0.9C334.7,25.2,334.6,25.9,334.5,26.6z"/>
			</g>
		</g>
	</g>
</g>
<g>
	<g>
		<g>
			<g>
				<g>
					<path class="st0" d="M571.1,23.7h-4.7v-0.8h4.7c1.1,0,2.1-0.6,2.8-1.6l1.8-4.3c0.6-1,1.6-1.8,2.7-1.8h5.6v0.8h-5.6
						c-0.8,0-1.6,0.5-2.1,1.3l-1.6,4.2C573.5,22.8,572.4,23.7,571.1,23.7z"/>
				</g>
			</g>
			<g>
				<g>
					<path class="st0" d="M581.9,17.3c-0.1,0-0.2-0.1-0.3-0.2c-0.1-0.2-0.1-0.4,0.1-0.5l1.6-1.1l-1.4-1.4c-0.2-0.1-0.2-0.4,0-0.5
						c0.1-0.2,0.4-0.2,0.5,0l1.8,1.8c0.1,0.1,0.1,0.2,0.1,0.3s-0.1,0.2-0.2,0.3l-2.1,1.3C582,17.3,581.9,17.3,581.9,17.3z"/>
				</g>
			</g>
			<g>
				<g>
					<path class="st0" d="M567.7,25.3c-0.1,0-0.2,0-0.3-0.1l-1.9-1.8c-0.1-0.1-0.1-0.2-0.1-0.3s0.1-0.2,0.2-0.3l2-1.4
						c0.2-0.1,0.4-0.1,0.5,0.1c0.1,0.2,0.1,0.4-0.1,0.5l-1.6,1.1l1.4,1.4c0.2,0.1,0.2,0.4,0,0.5C567.8,25.2,567.7,25.3,567.7,25.3z"
						/>
				</g>
			</g>
		</g>
		<g>
			<g>
				<g>
					<path class="st0" d="M583.3,23.6h-4.7c-1.3,0-2.6-0.7-3.3-2.1c-0.1-0.2-0.1-0.4,0.1-0.5c0.2-0.1,0.4-0.1,0.5,0.1
						c0.6,1,1.6,1.6,2.8,1.6h4.7c0.2,0,0.4,0.2,0.4,0.4C583.8,23.3,583.5,23.6,583.3,23.6z"/>
				</g>
			</g>
			<g>
				<g>
					<path class="st0" d="M573.8,17.3c-0.1,0-0.3-0.1-0.3-0.2c-0.4-0.8-1.2-1.3-2.1-1.3h-5.6c-0.2,0-0.4-0.2-0.4-0.4
						s0.2-0.4,0.4-0.4h5.6c1,0,2.2,0.7,2.7,1.8c0.1,0.2,0,0.4-0.1,0.5C573.9,17.3,573.9,17.3,573.8,17.3z"/>
				</g>
			</g>
			<g>
				<g>
					<path class="st0" d="M567.7,17.3c-0.1,0-0.1,0-0.2-0.1l-2-1.4c-0.1-0.1-0.2-0.2-0.2-0.3s0-0.2,0.1-0.3l1.8-1.8
						c0.2-0.1,0.4-0.1,0.5,0c0.1,0.2,0.1,0.4,0,0.5l-1.4,1.4l1.6,1.1c0.2,0.1,0.2,0.3,0.1,0.5C567.9,17.2,567.8,17.3,567.7,17.3z"/>
				</g>
			</g>
			<g>
				<g>
					<path class="st0" d="M581.9,25.3c-0.1,0-0.2,0-0.3-0.1c-0.1-0.2-0.1-0.4,0-0.5l1.4-1.4l-1.6-1.1c-0.2-0.1-0.2-0.3-0.1-0.5
						c0.1-0.2,0.3-0.2,0.5-0.1l2.1,1.3c0.1,0.1,0.2,0.2,0.2,0.3c0,0.1,0,0.2-0.1,0.3l-1.8,1.8C582.1,25.2,582,25.3,581.9,25.3z"/>
				</g>
			</g>
		</g>
	</g>
</g>
<g>
	<g>
		<g>
			<g>
				<g>
					<g>
						<ellipse class="st0" cx="70.8" cy="23.2" rx="1.2" ry="1.2"/>
					</g>
				</g>
			</g>
			<g>
				<g>
					<path class="st0" d="M83.5,11.8c0.7,0.4,1.8,1.2,1.9,2.5l0.1,0.9l0.9-0.2c0.4-0.1,1-0.2,1.8-0.2c1,0,1.9,0.2,2.3,0.7
						c-0.2,0.4-1.5,2.4-4.5,2.4c-0.2,0-0.4,0-0.7,0l-0.7-0.1l-0.2,0.7c-0.4,1.5-3,9.2-12.9,9.2c-9.7-0.5-10.6-8.4-10.7-9.9h19.5
						c0.9,0,1.9-0.2,2.4-0.3h0.1l1.1-0.2l-0.5-1C82.7,15.4,82.2,13.7,83.5,11.8 M83.3,10.9c-0.2,0-0.4,0.1-0.5,0.3
						c-1.6,2.5-0.9,4.5-0.4,5.5c-0.5,0.1-1.4,0.3-2.4,0.3H60.5c-0.1,0-0.3,0.1-0.4,0.2s-0.2,0.2-0.2,0.4c0,0.1,0.3,10.3,11.5,10.9
						c10.1,0,13.1-7.5,13.7-9.8c0.3,0,0.5,0,0.7,0c3.9,0,5.4-2.9,5.4-2.9c0.1-0.2,0.1-0.4,0-0.6c-0.6-0.9-1.9-1.2-3-1.2
						c-0.7,0-1.3,0.1-2,0.2c-0.1-1.8-1.6-2.9-2.6-3.3C83.5,10.9,83.4,10.9,83.3,10.9L83.3,10.9z"/>
				</g>
			</g>
			<g>
				<path class="st0" d="M78.1,17.3H63.3v-2.8h14.7V17.3z M64.2,16.5h13.1v-1.1H64.2V16.5z"/>
			</g>
			<g>
				<path class="st0" d="M75.3,15.1h-9v-2.8h9V15.1z M67.2,14.3h7.3v-1.1h-7.3V14.3z"/>
			</g>
			<g>
				<path class="st0" d="M75.3,12.7h-4.2V9.9h4.2V12.7z M71.9,11.9h2.6v-1.1h-2.6V11.9z"/>
			</g>
		</g>
		<g>
			<path class="st0" d="M87.3,20H58.2c-0.2,0-0.4-0.2-0.4-0.4s0.2-0.4,0.4-0.4h29.1c0.2,0,0.4,0.2,0.4,0.4
				C87.8,19.9,87.5,20,87.3,20z"/>
		</g>
	</g>
	<g>
		<path class="st0" d="M64.7,25.7c-0.3,0-0.6,0-1-0.1c-0.2-0.1-0.3-0.3-0.3-0.5c0.1-0.2,0.3-0.3,0.5-0.3c1.9,0.5,3.5-1,3.5-1
			c0.2-0.1,0.4-0.1,0.6,0c0.1,0.2,0.1,0.4,0,0.6C67.9,24.5,66.5,25.7,64.7,25.7z"/>
	</g>
</g>
<g>
	<g>
		<g>
			<g>
				<path class="st0" d="M517.7,16.6c-0.1,0-0.1,0-0.2,0c-0.2-0.1-0.2-0.3-0.1-0.5c1.4-2.5,4.1-4.1,7.2-4.1c2.9,0,5.6,1.5,7.1,4
					c0.1,0.2,0,0.4-0.1,0.5c-0.2,0.1-0.4,0-0.5-0.1c-1.3-2.3-3.8-3.6-6.5-3.6c-2.7,0-5.1,1.4-6.5,3.7
					C517.9,16.5,517.8,16.6,517.7,16.6z"/>
			</g>
		</g>
	</g>
	<g>
		<g>
			<g>
				<path class="st0" d="M524.7,28.5c-2.1,0-4.2-0.8-5.9-2.4c-0.2-0.1-0.2-0.4,0-0.5c0.1-0.2,0.4-0.2,0.5,0c1.5,1.4,3.4,2.2,5.4,2.2
					s3.9-0.8,5.1-2.3c0.1-0.2,0.4-0.2,0.5,0c0.2,0.1,0.2,0.4,0,0.5C529.2,27.4,526.9,28.5,524.7,28.5z"/>
			</g>
		</g>
	</g>
	<g>
		<g>
			<g>
				<g>
					<path class="st0" d="M530,21.5L530,21.5l0.4-1.3l0.5-2h0.8l0.4,2l0.5,1.5l0,0c0.1-0.4,0.5-3,0.7-3.5l0,0h1.1l-1.3,4.3h-1
						l-0.4-1.8c-0.1-0.4-0.3-1.3-0.3-1.3l0,0c-0.1,0.4-0.4,1.3-0.4,1.3l-0.5,1.8h-1l-1.3-4.3h1.1L530,21.5z"/>
				</g>
			</g>
		</g>
	</g>
	<g>
		<g>
			<g>
				<g>
					<path class="st0" d="M523.1,21.5L523.1,21.5l0.4-1.3l0.5-2h0.8l0.4,2l0.3,1.5l0,0c0.1-0.4,0.5-3,0.7-3.5l0,0h1.1l-1.3,4.3h-1
						l-0.4-1.8c-0.1-0.4-0.3-1.3-0.3-1.3l0,0c-0.1,0.4-0.4,1.3-0.4,1.3l-0.5,1.8h-1l-1.3-4.3h1.3L523.1,21.5z"/>
				</g>
			</g>
		</g>
	</g>
	<g>
		<g>
			<g>
				<g>
					<path class="st0" d="M516.2,21.5L516.2,21.5l0.4-1.3l0.5-2h0.8l0.4,2l0.3,1.5l0,0c0.1-0.4,0.5-3,0.7-3.5l0,0h1.1l-1.3,4.3h-1
						l-0.4-1.8c-0.1-0.4-0.3-1.3-0.3-1.3l0,0c-0.1,0.4-0.4,1.3-0.4,1.3l-0.5,1.8h-1l-1.3-4.3h1.1L516.2,21.5z"/>
				</g>
			</g>
		</g>
	</g>
</g>
<g>
	<path class="st0" d="M136.2,14.1h-4.9v-1.6c0-0.6-0.5-1.2-1.2-1.2h-9.7c-0.6,0-1.2,0.5-1.2,1.2v1.6h-4.7c-0.8,0-1.6,0.7-1.6,1.5V26
		c0,0.8,0.7,1.5,1.5,1.5h5.6c0.2,0.1,0.3,0.2,0.5,0.2h9.7c0.2,0,0.4-0.1,0.5-0.2h5.7c0.8,0,1.5-0.7,1.5-1.5V15.6
		C137.9,14.8,137.1,14.1,136.2,14.1z M113.6,26.1V15.6c0-0.4,0.4-0.7,0.8-0.7h4.8l0,0v11.9h-4.9C113.9,26.8,113.6,26.5,113.6,26.1z
		 M130.2,26.9c-0.1,0-0.2,0.1-0.2,0.1h-9.7c0,0-0.1,0-0.2-0.1l-0.2-0.1V14.5l0,0v-0.4v-1.6c0-0.2,0.2-0.4,0.4-0.4h9.7
		c0.2,0,0.4,0.2,0.4,0.4v1.6v0.8l0,0v11.9l0,0L130.2,26.9z M136.9,15.6L136.9,15.6v10.5c0,0.4-0.3,0.7-0.7,0.7h-4.9V14.9h4.9
		c0.2,0,0.5,0.1,0.6,0.2C136.9,15.2,136.9,15.4,136.9,15.6L136.9,15.6z"/>
	<circle class="st0" cx="125.3" cy="23" r="0.8"/>
	<path class="st0" d="M131.9,22.6v1.6c0.5,0,0.8-0.4,0.8-0.8C132.7,23,132.3,22.6,131.9,22.6z"/>
	<path class="st0" d="M117.9,23.4c0,0.5,0.4,0.8,0.8,0.8v-1.6C118.2,22.6,117.9,23,117.9,23.4z"/>
	<rect x="121.2" y="13.5" class="st0" width="8.1" height="0.9"/>
	<rect x="121.2" y="15.8" class="st0" width="8.1" height="0.9"/>
	<rect x="131.9" y="15.7" class="st0" width="3.4" height="0.9"/>
	<rect x="131.9" y="18.1" class="st0" width="3.4" height="0.9"/>
	<rect x="115" y="15.7" class="st0" width="3.7" height="0.9"/>
	<rect x="115" y="18.1" class="st0" width="3.7" height="0.9"/>
	<rect x="121.2" y="18.1" class="st0" width="8.1" height="0.9"/>
	<rect x="131.9" y="20.4" class="st0" width="3.4" height="0.9"/>
	<rect x="115" y="20.4" class="st0" width="3.7" height="0.9"/>
</g>
<g>
	<g>
		<g>
			<path class="st0" d="M182.1,14.7l3.2,3.9v7.1c0,0.4-0.3,0.7-0.8,0.7h-17.9c-0.4,0-0.8-0.3-0.8-0.7V15.4c0-0.4,0.3-0.7,0.8-0.7
				H182.1 M182.4,13.8h-15.9c-0.8,0-1.5,0.7-1.5,1.4v10.3c0,0.8,0.7,1.4,1.5,1.4h18c0.8,0,1.5-0.7,1.5-1.4v-7.4L182.4,13.8
				L182.4,13.8z"/>
		</g>
		<g>
			<rect x="168.4" y="17.6" class="st0" width="9.5" height="0.9"/>
		</g>
		<g>
			<rect x="168.4" y="20.3" class="st0" width="14.3" height="0.9"/>
		</g>
		<g>
			<rect x="168.4" y="23.3" class="st0" width="14.3" height="0.9"/>
		</g>
	</g>
	<g>
		<g>
			<polygon class="st0" points="185.5,19.3 181,19.3 181,14.7 181.9,14.7 181.9,18.5 185.5,18.5 			"/>
		</g>
	</g>
</g>
<g>
	<g>
		<g>
			<g>
				<path class="st0" d="M26,13.1c2.2,0,4,1.1,5,2.9l0.2,0.4h0.5h1.6l0.2,2.8v0.5l0.5,0.2c0.9,0.4,2.6,1.3,2.6,3.3
					c0,2.2-1.8,3.9-3.9,3.9H16c-2.2,0-3.9-1.8-3.9-3.9c0-2.1,2.1-3.9,4.3-3.9h2h0.7l0.1-0.7c0.1-0.5,0.1-0.8,0.3-1.2l0.2-0.4
					l-0.3-0.4c-0.3-0.4-0.4-0.9-0.3-1.4c0.2-0.7,0.9-1.2,1.5-1.2c0,0,0.3,0,0.6,0.1l0.1,0.1l0.3,0.3l0.4-0.3c1-0.6,2.2-0.9,3.3-0.9
					H26 M26,12.3c-0.2,0-0.4,0-0.6,0c-1.3,0-2.7,0.4-3.7,1c-0.2-0.1-0.2-0.1-0.4-0.2C21,13,20.8,13,20.6,13c-1,0-2.1,0.7-2.4,1.9
					c-0.2,0.7,0,1.5,0.4,2.2c0,0-0.3,0.6-0.3,1.4h-2c-2.6,0-5.1,2.2-5.1,4.7S13.4,28,16,28h16.8c2.6,0,4.7-2.2,4.7-4.7
					c0-2-1.3-3.3-3.1-4l-0.1-2.9c0-0.4-0.3-0.7-0.7-0.7h-1.8C30.7,13.7,28.6,12.3,26,12.3L26,12.3z"/>
			</g>
		</g>
		<g>
			<g>
				<path class="st0" d="M20.7,14.7c-0.5,0-0.9,0.4-0.9,0.9c0,0.5,0.4,0.9,0.9,0.9s0.9-0.4,0.9-0.9C21.6,15.1,21.2,14.7,20.7,14.7
					L20.7,14.7z"/>
			</g>
		</g>
		<g>
			<g>
				<path class="st0" d="M33.5,16.4C33.5,16.4,33.6,16.4,33.5,16.4V21v5.8h-4.9V16.4h1.5L33.5,16.4 M33.7,15.6h-3.5h-1.8
					c-0.3,0-0.6,0.3-0.6,0.7v11.2h6.6V21v-4.5C34.3,15.9,34,15.6,33.7,15.6L33.7,15.6z"/>
			</g>
		</g>
		<g>
			<g>
				<path class="st0" d="M27.7,18.8V21v5.8h-4.9v-8h1.5L27.7,18.8 M27.8,18h-3.5h-1.8c-0.3,0-0.6,0.3-0.6,0.7v8.9h6.6V21v-2.3
					C28.5,18.3,28.2,18,27.8,18L27.8,18z"/>
			</g>
		</g>
		<g>
			<g>
				<path class="st0" d="M21.7,21.8v2.2v2.8h-4.9v-4.9h1.5H21.7 M21.9,21h-3.5h-1.8c-0.3,0-0.6,0.3-0.6,0.7v5.9h6.6v-3.6v-2.3
					C22.6,21.4,22.2,21,21.9,21L21.9,21z"/>
			</g>
		</g>
	</g>
	<g>
		<rect x="29.2" y="17.2" class="st0" width="3.5" height="2"/>
	</g>
	<g>
		<rect x="29.2" y="20.2" class="st0" width="3.5" height="2"/>
	</g>
	<g>
		<rect x="29.2" y="23.5" class="st0" width="3.5" height="2"/>
	</g>
	<g>
		<rect x="23.3" y="20.2" class="st0" width="3.5" height="2"/>
	</g>
	<g>
		<rect x="23.3" y="23.5" class="st0" width="3.5" height="2"/>
	</g>
	<g>
		<rect x="17.5" y="23.5" class="st0" width="3.5" height="2"/>
	</g>
</g>
<g>
	<g>
		<path class="st0" d="M273.9,23.9c-2.1,0-3.8-1.8-3.8-3.8s1.8-3.8,3.8-3.8c2.1,0,3.8,1.8,3.8,3.8C277.7,22.2,275.9,23.9,273.9,23.9
			z M273.9,17.1c-1.6,0-3,1.3-3,3s1.3,3,3,3s3-1.3,3-3S275.5,17.1,273.9,17.1z"/>
	</g>
	<g>
		<g>
			<path class="st0" d="M273.9,9.5c0.5,0,1.2,0.1,2,0.2l0.6,2.2c0.1,0.6,0.6,0.9,1,0.9h0.2h0.2l0.2-0.1l1.5-1c1,0.7,2,1.6,2.9,3
				l-0.6,1.1l-0.1,0.2v0.2c0,0.2,0,0.6,0.3,0.9c0.1,0.1,0.3,0.3,0.6,0.3l1.1,0.3c0.3,1.4,0.3,3,0,4.4l-1.5,0.6h-0.1h-0.1
				c-0.6,0.3-0.7,0.7-0.7,1V24v0.2l0.1,0.1l0.7,1.5c-0.9,1.2-2,2.2-3.3,3l-1.2-0.8h-0.2h-0.2H277c-0.5,0-1,0.4-1,0.9l-0.4,1.4
				c-0.7,0.2-1.2,0.2-1.8,0.2c-0.9,0-1.6-0.1-2.4-0.2l-0.3-1.4v-0.2l-0.2-0.2l-0.1-0.1c-0.2-0.2-0.4-0.5-0.9-0.5
				c-0.3,0-0.4,0.1-0.6,0.2l0,0l0,0l-1.1,0.7c-1.2-0.9-2.2-2-3-3.3l0.5-1.1c0.3-0.6,0-1.3-0.5-1.6l0,0h-0.1l-1-0.3
				c-0.2-1.4-0.2-2.9,0-4.4l1.1-0.3c0.4,0,0.7-0.3,0.9-0.6c0.1-0.2,0.1-0.4,0.1-0.5c0-0.2,0-0.4-0.2-0.6l-1-1.3
				c0.7-1.2,1.9-2.4,3.1-3.2l1.4,0.8l0.2,0.1h0.2h0.1c0.5,0,1-0.4,1-0.9l0.5-1.6C272.3,9.6,273,9.5,273.9,9.5 M273.9,8.7
				c-1,0-1.9,0.1-2.7,0.3L271,9.2l-0.6,2.1c0,0.2-0.2,0.3-0.3,0.3c-0.1,0-0.1,0-0.1,0l-1.9-1l-0.2,0.1c-1.6,1-2.9,2.4-3.7,3.8
				l-0.1,0.2l1,1.6c0.1,0.1,0.1,0.2,0,0.3c0,0.1-0.1,0.2-0.3,0.2l-1.8,0.5v0.2c-0.3,1.8-0.3,3.4,0,5.1v0.2l1.5,0.5
				c0.2,0.1,0.3,0.4,0.2,0.6l-0.7,1.5l0.1,0.2c0.9,1.5,2.1,2.8,3.5,3.8l0.2,0.2l1.6-1c0.2-0.1,0.2-0.1,0.3-0.1
				c0.2,0,0.3,0.2,0.5,0.4l0.4,1.9L271,31c0.8,0.2,1.6,0.3,2.8,0.3c0.7,0,1.3-0.1,2.2-0.3h0.2l0.6-2c0-0.2,0.2-0.3,0.3-0.3
				c0.2,0,0.2,0,0.2,0l1.6,1l0.2-0.1c1.5-0.9,2.8-2.1,3.8-3.5l0.1-0.2l-0.8-2c0-0.1,0-0.2,0-0.2c0-0.1,0.1-0.2,0.3-0.3l2-0.6
				l0.1-0.2c0.4-1.8,0.4-3.5,0-5.3l-0.1-0.2l-1.5-0.4c-0.1,0-0.2-0.1-0.2-0.1c-0.1-0.1-0.1-0.3-0.1-0.4l0.8-1.5l-0.1-0.2
				c-1-1.5-2.2-2.8-3.5-3.6l-0.2-0.1l-2,1.2c0,0-0.1,0-0.2,0s-0.3-0.1-0.3-0.3l-0.7-2.6l-0.2-0.1C275.4,8.9,274.5,8.7,273.9,8.7
				L273.9,8.7z"/>
		</g>
	</g>
</g>
<g>
	<g>
		<g>
			<path class="st0" d="M232.3,27.1h-16.5c-1.1,0-2-0.8-2-2v-2.3l0.3-0.1c1-0.3,1.9-1.2,1.9-2.4c0-1.1-0.8-2.1-1.9-2.3l-0.3-0.1
				v-2.3c0-1.1,0.8-2,2-2h16.5c1.1,0,2,0.8,2,2v2.3l-0.3,0.1c-1.1,0.2-2,1.2-2,2.5s0.8,2.2,2,2.5l0.3,0.1v2.3
				C234.3,26.3,233.5,27.1,232.3,27.1z M214.7,23.5v1.6c0,0.6,0.5,1.1,1.1,1.1h16.5c0.6,0,1.1-0.5,1.1-1.1v-1.5
				c-1.3-0.4-2.4-1.8-2.4-3.2s1-2.8,2.4-3.2v-1.5c0-0.6-0.5-1.1-1.1-1.1h-16.5c-0.6,0-1.1,0.5-1.1,1.1v1.6c1.2,0.4,2.2,1.6,2.2,3
				C216.8,21.9,215.9,23,214.7,23.5z"/>
		</g>
	</g>
	<g>
		<rect x="219.2" y="17.6" class="st0" width="0.8" height="6.4"/>
	</g>
	<g>
		<rect x="221" y="17.6" class="st0" width="8.1" height="0.8"/>
	</g>
	<g>
		<rect x="221" y="20.5" class="st0" width="6.5" height="0.8"/>
	</g>
	<g>
		<rect x="221" y="23.3" class="st0" width="4.8" height="0.8"/>
	</g>
</g>
<g>
	<g>
		<g>
			<g>
				<path class="st0" d="M383.3,27.3H367c-0.8,0-1.4-0.7-1.4-1.4V14.3c0-0.8,0.7-1.4,1.4-1.4h16.4c0.8,0,1.4,0.7,1.4,1.4v11.6
					C384.8,26.6,384.1,27.3,383.3,27.3z M367,13.6c-0.3,0-0.6,0.2-0.6,0.6v11.6c0,0.3,0.2,0.6,0.6,0.6h16.3c0.4,0,0.7-0.3,0.7-0.6
					V14.3c0-0.3-0.2-0.6-0.6-0.6C383.4,13.6,367,13.6,367,13.6z"/>
			</g>
		</g>
	</g>
	<g>
		<g>
			<path class="st0" d="M381.6,15.5V19h-13.1v-3.5H381.6 M381.9,14.8h-14v4.7h14.4v-4.3C382.4,15.1,382.2,14.8,381.9,14.8
				L381.9,14.8z"/>
		</g>
	</g>
	<g>
		<g>
			<path class="st0" d="M374.2,21v3.5h-5.7V21H374.2 M374.7,20.4h-6.8v4.7h6.9v-4.6C374.8,20.4,374.7,20.4,374.7,20.4L374.7,20.4z"
				/>
		</g>
	</g>
	<g>
		<g>
			<rect x="375.9" y="20.4" class="st0" width="6.3" height="0.7"/>
		</g>
	</g>
	<g>
		<g>
			<rect x="375.9" y="22" class="st0" width="6.3" height="0.7"/>
		</g>
	</g>
	<g>
		<g>
			<rect x="375.9" y="23.6" class="st0" width="2.2" height="0.7"/>
		</g>
	</g>
</g>
<g>
	<g>
		<path class="st0" d="M467.2,12.7c0.8,0,1.5,0.5,1.9,1.5c0.7,2.3,1.3,4.5,2.2,7.1c0.5-1.4,0.8-2.7,1.2-3.9c0.4-1.1,0.7-2.3,1-3.4
			c0.3-0.8,0.8-1.3,1.8-1.3l0,0c1,0,1.5,0.5,1.9,1.3c0.6,2,1.2,3.8,1.9,5.8c0.1,0.4,0.3,0.8,0.5,1.4c0.7-2.5,1.4-4.7,2.2-7
			c0.3-0.8,0.7-1.5,1.6-1.6c0.1,0,0.1,0,0.2,0c1.3,0,2.2,1,1.8,2.3c-1.1,3.5-2.5,6.9-3.7,10.4c-0.1,0.3-0.3,0.5-0.4,0.7
			c-0.4,0.5-1,0.7-1.6,0.7c-0.8,0-1.6-0.5-2-1.3c-0.7-1.9-1.2-3.7-1.9-5.6c-0.1-0.2-0.1-0.4-0.3-0.8c-0.7,2.2-1.3,4.2-2.1,6.2
			c-0.3,1-1.1,1.5-2,1.5c-0.3,0-0.6-0.1-0.9-0.2c-0.5-0.3-1.1-0.8-1.3-1.3c-1.2-3.3-2.5-6.6-3.6-10c-0.4-1.3,0-2.2,1-2.5
			C466.8,12.8,467,12.7,467.2,12.7 M467.2,12L467.2,12c-0.3,0-0.6,0-0.8,0.1c-0.7,0.2-1.2,0.6-1.5,1.1c-0.2,0.4-0.4,1.2,0,2.4
			c1.2,3.7,2.5,6.9,3.6,10c0.3,0.7,0.9,1.4,1.6,1.8c0.4,0.2,0.8,0.3,1.2,0.3c1.2,0,2.3-0.8,2.7-2.1c0.4-1.3,0.8-2.6,1.3-3.9
			c0,0.1,0.1,0.2,0.1,0.3c0.4,1.2,0.8,2.6,1.3,3.9c0.4,1.1,1.4,1.9,2.7,1.9c0.8,0,1.6-0.3,2.2-1c0.3-0.3,0.5-0.6,0.6-0.9l0.7-2.2
			c0.9-2.7,2-5.6,2.9-8.3c0.3-0.8,0.2-1.6-0.3-2.3s-1.2-1-2.2-1c-0.1,0-0.2,0-0.2,0c-1.8,0.1-2.3,1.6-2.4,2.2
			c-0.4,1.5-0.9,3.1-1.4,4.6v-0.1c-0.5-1.6-1-3.2-1.5-4.8c-0.4-1.2-1.2-2-2.6-2c-0.9,0-2.1,0.3-2.6,1.9c-0.2,0.6-0.4,1.3-0.6,2
			c-0.1,0.5-0.3,0.9-0.4,1.4c-0.2,0.5-0.3,1-0.5,1.5c-0.5-1.6-0.9-3.2-1.4-4.7C469.4,12.7,468.4,12,467.2,12L467.2,12L467.2,12z"/>
	</g>
</g>
<g>
	<g>
		<g>
			<g>
				<g>
					<path class="st1" d="M626,52.6c4.3,0,7.9,3.6,7.9,7.9c0,2.1-0.7,4-2.3,5.6c-1.5,1.5-3.5,2.4-5.8,2.4c-4.3,0-7.9-3.6-7.9-7.9
						S621.7,52.6,626,52.6 M626,51.7c-4.7,0-8.8,4-8.8,8.8s4,8.8,8.8,8.8c4.9,0,8.8-4,8.8-8.8C634.7,55.8,630.7,51.7,626,51.7
						L626,51.7z"/>
				</g>
			</g>
		</g>
	</g>
	<g>
		<g>
			<g>
				
					<rect x="634.8" y="55.5" transform="matrix(0.8763 -0.4818 0.4818 0.8763 51.6387 313.0344)" class="st1" width="1.1" height="1"/>
			</g>
		</g>
	</g>
	<g>
		<g>
			<g>
				
					<rect x="625.3" y="49.8" transform="matrix(3.648657e-02 -0.9993 0.9993 3.648657e-02 552.9076 674.0225)" class="st1" width="1.3" height="0.9"/>
			</g>
		</g>
	</g>
	<g>
		<g>
			<g>
				
					<rect x="625.4" y="70.4" transform="matrix(3.648657e-02 -0.9993 0.9993 3.648657e-02 532.4045 693.873)" class="st1" width="1.3" height="0.9"/>
			</g>
		</g>
	</g>
	<g>
		<g>
			<g>
				
					<rect x="635" y="63.7" transform="matrix(0.4754 -0.8798 0.8798 0.4754 276.7823 592.8526)" class="st1" width="1" height="1.3"/>
			</g>
		</g>
	</g>
	<g>
		<g>
			<g>
				
					<rect x="616.3" y="55" transform="matrix(0.4403 -0.8979 0.8979 0.4403 295.3158 584.9661)" class="st1" width="1" height="1.3"/>
			</g>
		</g>
	</g>
	<g>
		<g>
			<g>
				
					<rect x="615.7" y="63.9" transform="matrix(0.8939 -0.4483 0.4483 0.8939 36.5531 283.1536)" class="st1" width="1.3" height="0.9"/>
			</g>
		</g>
	</g>
	<g>
		<g>
			<g>
				<g>
					<path class="st2" d="M625.7,63.7v-2.2l-0.6-0.3c-0.7-0.3-1.3-0.6-1.6-1c-0.4-0.4-0.6-1-0.6-1.5s0.5-1.4,0.9-1.8
						c0.4-0.3,0.7-0.6,2.1-0.7V55h0.9v1.1c0.9,0,1.8,0.3,2.7,0.4l-0.4,1.3c-0.7-0.3-1.3-0.4-2.2-0.4V60l0,0c0.9,0.4,1.9,0.9,2.2,1.3
						c0.4,0.3,0.6,0.8,0.6,1.4s-0.3,1.3-0.7,1.6c-0.4,0.3-1.1,0.7-2.2,0.7v1.4h-0.9v-1.4c-1.1,0-2.1-0.3-2.8-0.4v-1.4
						C624.3,63.8,625.7,63.7,625.7,63.7z M624.6,58.5c0,0.8,1.2,1,1.2,1v-2.1C625.3,57.5,624.6,57.7,624.6,58.5z M627.8,62.9
						c-0.1-0.9-1.1-1.1-1.1-1.1v1.9C627.7,63.6,627.8,62.9,627.8,62.9z"/>
				</g>
			</g>
		</g>
	</g>
</g>
<g>
	<g>
		<g>
			<g>
				<g>
					<path class="st1" d="M425.1,69.4c-2.6,0-4.9-1-6.8-2.8c-1.9-1.8-2.8-4.2-2.8-6.9c0-2.5,1-4.9,2.9-6.8c1.9-1.8,4.2-2.7,6.7-2.7
						h0.2c2.5,0,4.9,1,6.7,2.9c1.9,1.9,2.8,4.3,2.8,6.9C434.5,65.1,430.2,69.4,425.1,69.4z M425.1,50.9c-2.2,0-4.4,0.8-6.1,2.5
						c-1.8,1.8-2.7,3.9-2.7,6.3c0,2.5,0.9,4.7,2.5,6.4c1.6,1.6,3.9,2.6,6.3,2.6c4.7,0,8.8-3.9,8.9-8.7c0.1-2.4-0.8-4.6-2.5-6.3
						c-1.6-1.8-3.9-2.7-6.2-2.7h-0.2V50.9z"/>
				</g>
			</g>
		</g>
	</g>
	<g>
		<g>
			<g>
				<path class="st2" d="M430.2,54.1c-0.2,0-0.2,0-0.4,0.1c-0.6,0.2-1,0.9-0.9,1.5c0.1,0.4,0.2,0.7,0.4,1c0.2,0.3,0.4,0.7,0.6,1
					c0.4,0.8,0.5,1.6,0.2,2.7c-0.1,0.4-0.2,0.8-0.3,1.1c-0.2,0.9-0.5,1.9-0.9,2.7c0,0.1,0,0.1-0.1,0.2c-0.9-2.7-1.9-5.5-2.8-8.2
					c0.2,0,0.3,0,0.5,0s0.3,0,0.4-0.1c0.2,0,0.3-0.2,0.3-0.3s-0.1-0.3-0.3-0.3c-0.4,0-0.8,0.1-1.2,0.1c-0.5,0-1,0-1.5,0
					c-0.4-0.1-0.8-0.1-1.2-0.1c-0.2,0-0.4,0.2-0.3,0.5c0.1,0.1,0.2,0.2,0.2,0.2c0.2,0,0.5,0.1,0.7,0.1c0.1,0,0.2,0,0.2,0.1
					c0.4,1,0.7,2.1,1.1,3.1c0,0.1,0,0.1,0,0.2c-0.5,1.5-1.1,3.3-1.5,4.8c0,0,0,0,0,0.1c-0.9-2.8-1.9-5.5-2.8-8.2c0.2,0,0.3,0,0.5,0
					c0.2,0,0.3,0,0.4-0.1c0.2,0,0.3-0.2,0.2-0.3c0-0.2-0.2-0.3-0.3-0.3c-0.5,0-0.9,0.1-1.5,0.1c-0.3,0-0.7,0-1,0
					C421.2,51.6,426.9,50.9,430.2,54.1z"/>
			</g>
		</g>
		<g>
			<g>
				<path class="st2" d="M427.6,67.1c-1.4,0.5-3.3,0.5-4.7,0.1c0.8-2.3,1.5-4.4,2.3-6.7C426.1,62.7,426.9,64.8,427.6,67.1z"/>
			</g>
		</g>
		<g>
			<g>
				<path class="st2" d="M418,56.7c1.2,3.4,2.5,6.7,3.7,10c-1.9-0.9-3.1-2.3-3.8-4.3C417.2,60.5,417.3,58.6,418,56.7z"/>
			</g>
		</g>
		<g>
			<g>
				<path class="st2" d="M431.8,56.2c1.9,3.4,0.9,8-2.9,10.3c0.1-0.2,0.2-0.4,0.2-0.6c0.7-2,1.3-4,2.1-6.1c0.2-0.5,0.4-1.1,0.5-1.6
					C431.8,57.5,431.9,56.9,431.8,56.2z"/>
			</g>
		</g>
	</g>
</g>
<g>
	<g>
		<path class="st1" d="M682.8,67H666c-0.2,0-0.4-0.2-0.4-0.4V54.1c0-1,0.9-2,2-2h14c0.1,0,0.2,0,0.3,0.1l2.8,3.1
			c0.1,0.1,0.1,0.2,0.1,0.3V65C684.8,66.1,683.8,67,682.8,67z M666.4,66.2h16.4c0.6,0,1.1-0.5,1.1-1.1v-9.3l-2.6-2.9h-13.8
			c-0.6,0-1.1,0.5-1.1,1.1V66.2z"/>
	</g>
	<g>
		<g>
			<path class="st2" d="M673.8,61c0,0.6-0.2,1-0.6,1.4s-1,0.6-1.9,0.7v0.7h-0.8v-0.7c-0.9,0-1.8-0.2-2.4-0.4v-1.2
				c0.3,0.2,0.7,0.3,1.2,0.4s0.8,0.2,1.2,0.2V60l-0.5-0.2c-0.6-0.2-1.1-0.5-1.4-0.9c-0.3-0.3-0.4-0.7-0.4-1.2s0.2-1,0.6-1.3
				c0.4-0.3,1-0.5,1.8-0.6v-0.7h0.8v0.7c0.8,0,1.5,0.2,2.3,0.5l-0.4,1c-0.6-0.2-1.2-0.4-1.9-0.4V59l0.4,0.2c0.7,0.3,1.2,0.6,1.5,0.9
				C673.7,60.2,673.8,60.6,673.8,61z M669.6,57.5c0,0.2,0.1,0.4,0.2,0.5c0.1,0.1,0.4,0.3,0.7,0.4v-1.9c-0.3,0-0.5,0.1-0.7,0.3
				C669.7,57.1,669.6,57.3,669.6,57.5z M672.4,61.1c0-0.2-0.1-0.4-0.2-0.5c-0.2-0.1-0.4-0.3-0.8-0.4V62
				C672.1,61.9,672.4,61.6,672.4,61.1z"/>
		</g>
	</g>
	<g>
		<rect x="675.2" y="57.1" class="st2" width="6.3" height="0.8"/>
	</g>
	<g>
		<rect x="675.2" y="59.2" class="st2" width="6.3" height="0.8"/>
	</g>
	<g>
		<rect x="675.2" y="61.2" class="st2" width="3.5" height="0.8"/>
	</g>
	<g>
		<path class="st1" d="M684.3,56.3h-3.1c-0.2,0-0.4-0.2-0.4-0.4v-3h0.8v2.6h2.7V56.3z"/>
	</g>
</g>
<g>
	<g>
		<g>
			<g>
				<g>
					<path class="st1" d="M571.1,63.8h-4.7V63h4.7c1.1,0,2.1-0.6,2.8-1.6l1.8-4.3c0.6-1,1.6-1.8,2.7-1.8h5.6v0.8h-5.6
						c-0.8,0-1.6,0.5-2.1,1.3l-1.6,4.2C573.5,63,572.4,63.8,571.1,63.8z"/>
				</g>
			</g>
			<g>
				<g>
					<path class="st1" d="M581.9,57.5c-0.1,0-0.2-0.1-0.3-0.2c-0.1-0.2-0.1-0.4,0.1-0.5l1.6-1.1l-1.4-1.4c-0.2-0.1-0.2-0.4,0-0.5
						c0.1-0.2,0.4-0.2,0.5,0l1.8,1.8c0.1,0.1,0.1,0.2,0.1,0.3c0,0.1-0.1,0.2-0.2,0.3l-2.1,1.3C582,57.5,581.9,57.5,581.9,57.5z"/>
				</g>
			</g>
			<g>
				<g>
					<path class="st1" d="M567.7,65.5c-0.1,0-0.2,0-0.3-0.1l-1.9-1.8c-0.1-0.1-0.1-0.2-0.1-0.3c0-0.1,0.1-0.2,0.2-0.3l2-1.4
						c0.2-0.1,0.4-0.1,0.5,0.1c0.1,0.2,0.1,0.4-0.1,0.5l-1.6,1.1l1.4,1.4c0.2,0.1,0.2,0.4,0,0.5C567.8,65.4,567.7,65.5,567.7,65.5z"
						/>
				</g>
			</g>
		</g>
		<g>
			<g>
				<g>
					<path class="st2" d="M583.3,63.7h-4.7c-1.3,0-2.6-0.7-3.3-2.1c-0.1-0.2-0.1-0.4,0.1-0.5s0.4-0.1,0.5,0.1c0.6,1,1.6,1.6,2.8,1.6
						h4.7c0.2,0,0.4,0.2,0.4,0.4S583.5,63.7,583.3,63.7z"/>
				</g>
			</g>
			<g>
				<g>
					<path class="st2" d="M573.8,57.5c-0.1,0-0.3-0.1-0.3-0.2c-0.4-0.8-1.2-1.3-2.1-1.3h-5.6c-0.2,0-0.4-0.2-0.4-0.4
						s0.2-0.4,0.4-0.4h5.6c1,0,2.2,0.7,2.7,1.8c0.1,0.2,0,0.4-0.1,0.5C573.9,57.5,573.9,57.5,573.8,57.5z"/>
				</g>
			</g>
			<g>
				<g>
					<path class="st2" d="M567.7,57.5c-0.1,0-0.1,0-0.2-0.1l-2-1.4c-0.1-0.1-0.2-0.2-0.2-0.3s0-0.2,0.1-0.3l1.8-1.8
						c0.2-0.1,0.4-0.1,0.5,0c0.1,0.2,0.1,0.4,0,0.5l-1.4,1.4l1.6,1.1c0.2,0.1,0.2,0.3,0.1,0.5C567.9,57.4,567.8,57.5,567.7,57.5z"/>
				</g>
			</g>
			<g>
				<g>
					<path class="st2" d="M581.9,65.5c-0.1,0-0.2,0-0.3-0.1c-0.1-0.2-0.1-0.4,0-0.5l1.4-1.4l-1.6-1.1c-0.2-0.1-0.2-0.3-0.1-0.5
						c0.1-0.2,0.3-0.2,0.5-0.1l2.1,1.3c0.1,0.1,0.2,0.2,0.2,0.3s0,0.2-0.1,0.3l-1.8,1.8C582.1,65.4,582,65.5,581.9,65.5z"/>
				</g>
			</g>
		</g>
	</g>
</g>
<g>
	<g>
		<g>
			<g>
				<g>
					<g>
						<ellipse class="st1" cx="70.7" cy="63.1" rx="1.2" ry="1.2"/>
					</g>
				</g>
			</g>
			<g>
				<g>
					<path class="st1" d="M83.5,51.6c0.7,0.4,1.8,1.2,1.9,2.5l0.1,0.9l0.9-0.2c0.4-0.1,1-0.2,1.8-0.2c1,0,1.9,0.2,2.3,0.7
						c-0.2,0.4-1.5,2.4-4.5,2.4c-0.2,0-0.4,0-0.7,0l-0.7-0.1l-0.2,0.7c-0.4,1.5-3,9.2-12.9,9.2C61.7,67,60.8,59,60.7,57.6h19.5
						c0.9,0,1.9-0.2,2.4-0.3h0.1l1.1-0.2l-0.5-1C82.7,55.2,82.2,53.6,83.5,51.6 M83.3,50.7c-0.2,0-0.4,0.1-0.5,0.3
						c-1.6,2.5-0.9,4.5-0.4,5.5c-0.5,0.1-1.4,0.3-2.4,0.3H60.4c-0.1,0-0.3,0.1-0.4,0.2s-0.2,0.2-0.2,0.4c0,0.1,0.3,10.3,11.5,10.9
						c10.1,0,13.1-7.5,13.7-9.8c0.3,0,0.5,0,0.7,0c3.9,0,5.4-2.9,5.4-2.9c0.1-0.2,0.1-0.4,0-0.6c-0.6-0.9-1.9-1.2-3-1.2
						c-0.7,0-1.3,0.1-2,0.2c-0.1-1.8-1.6-2.9-2.6-3.3C83.5,50.7,83.4,50.7,83.3,50.7L83.3,50.7z"/>
				</g>
			</g>
			<g>
				<path class="st2" d="M78.1,57.2H63.3v-2.8h14.7V57.2z M64.2,56.4h13.1v-1.1H64.2V56.4z"/>
			</g>
			<g>
				<path class="st2" d="M75.3,54.9h-9v-2.8h9V54.9z M67.1,54.1h7.3V53h-7.3V54.1z"/>
			</g>
			<g>
				<path class="st2" d="M75.3,52.5h-4.2v-2.8h4.2V52.5z M71.9,51.7h2.6v-1.1h-2.6V51.7z"/>
			</g>
		</g>
		<g>
			<path class="st2" d="M87.3,59.9H58.2c-0.2,0-0.4-0.2-0.4-0.4S58,59,58.2,59h29.1c0.2,0,0.4,0.2,0.4,0.4
				C87.7,59.8,87.5,59.9,87.3,59.9z"/>
		</g>
	</g>
	<g>
		<path class="st1" d="M64.7,65.5c-0.3,0-0.6,0-1-0.1c-0.2-0.1-0.3-0.3-0.3-0.5c0.1-0.2,0.3-0.3,0.5-0.3c1.9,0.5,3.5-1,3.5-1
			c0.2-0.1,0.4-0.1,0.6,0c0.1,0.2,0.1,0.4,0,0.6C67.9,64.3,66.5,65.5,64.7,65.5z"/>
	</g>
</g>
<g>
	<g>
		<g>
			<g>
				<path class="st1" d="M517.8,56.4c-0.1,0-0.1,0-0.2,0c-0.2-0.1-0.2-0.3-0.1-0.5c1.4-2.5,4.1-4.1,7.2-4.1c2.9,0,5.6,1.5,7.1,4
					c0.1,0.2,0,0.4-0.1,0.5c-0.2,0.1-0.4,0-0.5-0.1c-1.3-2.3-3.8-3.6-6.5-3.6s-5.1,1.4-6.5,3.7C518,56.3,517.9,56.4,517.8,56.4z"/>
			</g>
		</g>
	</g>
	<g>
		<g>
			<g>
				<path class="st1" d="M524.8,68.2c-2.1,0-4.2-0.8-5.9-2.4c-0.2-0.1-0.2-0.4,0-0.5c0.1-0.2,0.4-0.2,0.5,0c1.5,1.4,3.4,2.2,5.4,2.2
					s3.9-0.8,5.1-2.3c0.1-0.2,0.4-0.2,0.5,0c0.2,0.1,0.2,0.4,0,0.5C529.3,67.2,527,68.2,524.8,68.2z"/>
			</g>
		</g>
	</g>
	<g>
		<g>
			<g>
				<g>
					<path class="st2" d="M530.1,61.2L530.1,61.2l0.4-1.3l0.5-2h0.8l0.4,2l0.5,1.5l0,0c0.1-0.4,0.5-3,0.7-3.5l0,0h1.1l-1.3,4.3h-1
						l-0.4-1.8c-0.1-0.4-0.3-1.3-0.3-1.3l0,0c-0.1,0.4-0.4,1.3-0.4,1.3l-0.5,1.8h-1l-1.3-4.3h1.1L530.1,61.2z"/>
				</g>
			</g>
		</g>
	</g>
	<g>
		<g>
			<g>
				<g>
					<path class="st2" d="M523.2,61.2L523.2,61.2l0.4-1.3l0.5-2h0.8l0.4,2l0.3,1.5l0,0c0.1-0.4,0.5-3,0.7-3.5l0,0h1.1l-1.3,4.3h-1
						l-0.4-1.8c-0.1-0.4-0.3-1.3-0.3-1.3l0,0c-0.1,0.4-0.4,1.3-0.4,1.3l-0.5,1.8h-1l-1.3-4.3h1.3L523.2,61.2z"/>
				</g>
			</g>
		</g>
	</g>
	<g>
		<g>
			<g>
				<g>
					<path class="st2" d="M516.3,61.2L516.3,61.2l0.4-1.3l0.5-2h0.8l0.4,2l0.3,1.5l0,0c0.1-0.4,0.5-3,0.7-3.5l0,0h1.1l-1.3,4.3h-1
						l-0.4-1.8c-0.1-0.4-0.3-1.3-0.3-1.3l0,0c-0.1,0.4-0.4,1.3-0.4,1.3l-0.5,1.8h-1l-1.3-4.3h1.1L516.3,61.2z"/>
				</g>
			</g>
		</g>
	</g>
</g>
<g>
	<path class="st1" d="M136.2,54h-4.9v-1.6c0-0.6-0.5-1.2-1.2-1.2h-9.7c-0.6,0-1.2,0.5-1.2,1.2V54h-4.7c-0.8,0-1.6,0.7-1.6,1.5V66
		c0,0.8,0.7,1.5,1.5,1.5h5.6c0.2,0.1,0.3,0.2,0.5,0.2h9.7c0.2,0,0.4-0.1,0.5-0.2h5.7c0.8,0,1.5-0.7,1.5-1.5V55.6
		C137.9,54.8,137.1,54,136.2,54z M113.6,66.1V55.6c0-0.4,0.4-0.7,0.8-0.7h4.8l0,0v11.9h-4.9C113.9,66.8,113.6,66.5,113.6,66.1z
		 M130.2,66.9c-0.1,0-0.2,0.1-0.2,0.1h-9.7c0,0-0.1,0-0.2-0.1l-0.2-0.1V54.5l0,0V54v-1.6c0-0.2,0.2-0.4,0.4-0.4h9.7
		c0.2,0,0.4,0.2,0.4,0.4V54v0.8l0,0v11.9l0,0L130.2,66.9z M136.9,55.6L136.9,55.6v10.5c0,0.4-0.3,0.7-0.7,0.7h-4.9V54.9h4.9
		c0.2,0,0.5,0.1,0.6,0.2C136.9,55.2,136.9,55.4,136.9,55.6L136.9,55.6z"/>
	<circle class="st2" cx="125.3" cy="63" r="0.8"/>
	<path class="st2" d="M131.9,62.6v1.6c0.5,0,0.8-0.4,0.8-0.8C132.7,63,132.3,62.6,131.9,62.6z"/>
	<path class="st2" d="M117.9,63.4c0,0.5,0.4,0.8,0.8,0.8v-1.6C118.2,62.6,117.9,63,117.9,63.4z"/>
	<rect x="121.2" y="53.5" class="st2" width="8.1" height="0.9"/>
	<rect x="121.2" y="55.8" class="st2" width="8.1" height="0.9"/>
	<rect x="131.9" y="55.7" class="st2" width="3.4" height="0.9"/>
	<rect x="131.9" y="58.1" class="st2" width="3.4" height="0.9"/>
	<rect x="115" y="55.7" class="st2" width="3.7" height="0.9"/>
	<rect x="115" y="58.1" class="st2" width="3.7" height="0.9"/>
	<rect x="121.2" y="58.1" class="st2" width="8.1" height="0.9"/>
	<rect x="131.9" y="60.4" class="st2" width="3.4" height="0.9"/>
	<rect x="115" y="60.4" class="st2" width="3.7" height="0.9"/>
</g>
<g>
	<g>
		<g>
			<path class="st1" d="M182.1,54.5l3.2,3.9v7.1c0,0.4-0.3,0.7-0.8,0.7h-17.9c-0.4,0-0.8-0.3-0.8-0.7V55.2c0-0.4,0.3-0.7,0.8-0.7
				H182.1 M182.4,53.7h-15.9c-0.8,0-1.5,0.7-1.5,1.4v10.3c0,0.8,0.7,1.4,1.5,1.4h18c0.8,0,1.5-0.7,1.5-1.4V58L182.4,53.7L182.4,53.7
				z"/>
		</g>
		<g>
			<rect x="168.4" y="57.4" class="st2" width="9.5" height="0.9"/>
		</g>
		<g>
			<rect x="168.4" y="60.1" class="st2" width="14.3" height="0.9"/>
		</g>
		<g>
			<rect x="168.4" y="63.1" class="st2" width="14.3" height="0.9"/>
		</g>
	</g>
	<g>
		<g>
			<polygon class="st1" points="185.5,59.1 181,59.1 181,54.5 182,54.5 182,58.3 185.5,58.3 			"/>
		</g>
	</g>
</g>
<g>
	<g>
		<g>
			<g>
				<path class="st1" d="M25.8,53c2.2,0,4,1.1,5,2.9l0.2,0.4h0.5h1.6l0.2,2.8v0.5l0.5,0.2c0.9,0.4,2.6,1.3,2.6,3.3
					c0,2.2-1.8,3.9-3.9,3.9H15.8c-2.2,0-3.9-1.8-3.9-3.9c0-2.1,2.1-3.9,4.3-3.9h2h0.7l0.1-0.7c0.1-0.5,0.1-0.8,0.3-1.2l0.2-0.4
					l-0.3-0.4c-0.3-0.4-0.4-0.9-0.3-1.4c0.2-0.7,0.9-1.2,1.5-1.2c0,0,0.3,0,0.6,0.1l0.1,0.1l0.3,0.3l0.4-0.3c1-0.6,2.2-0.9,3.3-0.9
					H25.8 M25.8,52.1c-0.2,0-0.4,0-0.6,0c-1.3,0-2.7,0.4-3.7,1c-0.2-0.1-0.2-0.1-0.4-0.2c-0.2-0.1-0.4-0.1-0.6-0.1
					c-1,0-2.1,0.7-2.4,1.9c-0.2,0.7,0,1.5,0.4,2.2c0,0-0.3,0.6-0.3,1.4h-2c-2.6,0-5.1,2.2-5.1,4.7c0,2.6,2.2,4.7,4.7,4.7h16.8
					c2.6,0,4.7-2.2,4.7-4.7c0-2-1.3-3.3-3.1-4l-0.1-2.9c0-0.4-0.3-0.7-0.7-0.7h-1.8C30.5,53.6,28.5,52.1,25.8,52.1L25.8,52.1z"/>
			</g>
		</g>
		<g>
			<g>
				<path class="st1" d="M20.5,54.5c-0.5,0-0.9,0.4-0.9,0.9s0.4,0.9,0.9,0.9s0.9-0.4,0.9-0.9S21,54.5,20.5,54.5L20.5,54.5z"/>
			</g>
		</g>
		<g>
			<g>
				<path class="st1" d="M33.3,56.3C33.3,56.3,33.4,56.3,33.3,56.3v4.5v5.8h-4.9V56.3h1.5L33.3,56.3 M33.5,55.4H30h-1.8
					c-0.3,0-0.6,0.3-0.6,0.7v11.2h6.6v-6.6v-4.5C34.1,55.7,33.8,55.4,33.5,55.4L33.5,55.4z"/>
			</g>
		</g>
		<g>
			<g>
				<path class="st1" d="M27.5,58.6v2.2v5.8h-4.9v-8h1.5L27.5,58.6 M27.6,57.8h-3.5h-1.8c-0.3,0-0.6,0.3-0.6,0.7v8.9h6.6v-6.6v-2.3
					C28.4,58.1,28,57.8,27.6,57.8L27.6,57.8z"/>
			</g>
		</g>
		<g>
			<g>
				<path class="st1" d="M21.6,61.6v2.2v2.8h-4.9v-4.9h1.5H21.6 M21.8,60.8h-3.5h-1.8c-0.3,0-0.6,0.3-0.6,0.7v5.9h6.6v-3.6v-2.3
					C22.4,61.2,22.1,60.8,21.8,60.8L21.8,60.8z"/>
			</g>
		</g>
	</g>
	<g>
		<rect x="29.1" y="57.1" class="st2" width="3.5" height="2"/>
	</g>
	<g>
		<rect x="29.1" y="60.1" class="st2" width="3.5" height="2"/>
	</g>
	<g>
		<rect x="29.1" y="63.4" class="st2" width="3.5" height="2"/>
	</g>
	<g>
		<rect x="23.1" y="60.1" class="st2" width="3.5" height="2"/>
	</g>
	<g>
		<rect x="23.1" y="63.4" class="st2" width="3.5" height="2"/>
	</g>
	<g>
		<rect x="17.3" y="63.4" class="st2" width="3.5" height="2"/>
	</g>
</g>
<g>
	<g>
		<path class="st2" d="M273.9,63.7c-2.1,0-3.8-1.8-3.8-3.8c0-2.1,1.8-3.8,3.8-3.8c2.1,0,3.8,1.8,3.8,3.8
			C277.7,62.1,275.9,63.7,273.9,63.7z M273.9,56.9c-1.6,0-3,1.3-3,3c0,1.6,1.3,3,3,3s3-1.3,3-3S275.5,56.9,273.9,56.9z"/>
	</g>
	<g>
		<g>
			<path class="st1" d="M273.9,49.3c0.5,0,1.2,0.1,2,0.2l0.6,2.2c0.1,0.6,0.6,0.9,1,0.9h0.2h0.2l0.2-0.1l1.5-1c1,0.7,2,1.6,2.9,3
				l-0.6,1.1l-0.1,0.2V56c0,0.2,0,0.6,0.3,0.9c0.1,0.1,0.3,0.3,0.6,0.3l1.1,0.3c0.3,1.4,0.3,3,0,4.4l-1.5,0.6h-0.1h-0.1
				c-0.6,0.3-0.7,0.7-0.7,1v0.2V64l0.1,0.1l0.7,1.5c-0.9,1.2-2,2.2-3.3,3l-1.2-0.8h-0.2h-0.2H277c-0.5,0-1,0.4-1,0.9l-0.4,1.4
				c-0.7,0.2-1.2,0.2-1.8,0.2c-0.9,0-1.6-0.1-2.4-0.2l-0.3-1.4v-0.2l-0.2-0.2l-0.1-0.1c-0.2-0.2-0.4-0.5-0.9-0.5
				c-0.3,0-0.4,0.1-0.6,0.2l0,0l0,0l-1.1,0.7c-1.2-0.9-2.2-2-3-3.3l0.5-1.1c0.3-0.6,0-1.3-0.5-1.6l0,0h-0.1l-1-0.3
				c-0.2-1.4-0.2-2.9,0-4.4l1.1-0.3c0.4,0,0.7-0.3,0.9-0.6c0.1-0.2,0.1-0.4,0.1-0.5c0-0.2,0-0.4-0.2-0.6l-1-1.3
				c0.7-1.2,1.9-2.4,3.1-3.2l1.4,0.8l0.2,0.1h0.2h0.1c0.5,0,1-0.4,1-0.9l0.5-1.6C272.3,49.4,273,49.3,273.9,49.3 M273.9,48.6
				c-1,0-1.9,0.1-2.7,0.3L271,49l-0.6,2.1c0,0.2-0.2,0.3-0.3,0.3c-0.1,0-0.1,0-0.1,0l-1.9-1l-0.2,0.1c-1.6,1-2.9,2.4-3.7,3.8
				l-0.1,0.2l1,1.6c0.1,0.1,0.1,0.2,0,0.3c0,0.1-0.1,0.2-0.3,0.2l-1.8,0.5v0.2c-0.3,1.8-0.3,3.4,0,5.1v0.2l1.5,0.5
				c0.2,0.1,0.3,0.4,0.2,0.6l-0.7,1.5l0.1,0.2c0.9,1.5,2.1,2.8,3.5,3.8l0.2,0.2l1.6-1c0.2-0.1,0.2-0.1,0.3-0.1
				c0.2,0,0.3,0.2,0.5,0.4l0.4,1.9l0.2,0.1c0.8,0.2,1.6,0.3,2.8,0.3c0.7,0,1.3-0.1,2.2-0.3h0.2l0.6-2c0-0.2,0.2-0.3,0.3-0.3
				c0.2,0,0.2,0,0.2,0l1.6,1l0.2-0.1c1.5-0.9,2.8-2.1,3.8-3.5l0.1-0.2l-0.8-2c0-0.1,0-0.2,0-0.2c0-0.1,0.1-0.2,0.3-0.3l2-0.6
				l0.1-0.2c0.4-1.8,0.4-3.5,0-5.3l-0.1-0.2l-1.5-0.4c-0.1,0-0.2-0.1-0.2-0.1c-0.1-0.1-0.1-0.3-0.1-0.4l0.8-1.5l-0.1-0.2
				c-1-1.5-2.2-2.8-3.5-3.6l-0.2-0.1l-2,1.2c0,0-0.1,0-0.2,0s-0.3-0.1-0.3-0.3l-0.7-2.6l-0.2-0.1C275.4,48.7,274.5,48.6,273.9,48.6
				L273.9,48.6z"/>
		</g>
	</g>
</g>
<g>
	<g>
		<g>
			<path class="st1" d="M232.3,67.3h-16.5c-1.1,0-2-0.8-2-2V63l0.3-0.1c1-0.3,1.9-1.2,1.9-2.4s-0.8-2.1-1.9-2.3l-0.3-0.1v-2.3
				c0-1.1,0.8-2,2-2h16.5c1.1,0,2,0.8,2,2v2.3l-0.3,0.1c-1.1,0.2-2,1.2-2,2.5s0.8,2.2,2,2.5l0.3,0.1v2.3
				C234.3,66.4,233.5,67.3,232.3,67.3z M214.7,63.6v1.6c0,0.6,0.5,1.1,1.1,1.1h16.5c0.6,0,1.1-0.5,1.1-1.1v-1.5
				c-1.3-0.4-2.4-1.8-2.4-3.2c0-1.4,1-2.8,2.4-3.2v-1.5c0-0.6-0.5-1.1-1.1-1.1h-16.5c-0.6,0-1.1,0.5-1.1,1.1v1.6
				c1.2,0.4,2.2,1.6,2.2,3C216.8,62,215.9,63.1,214.7,63.6z"/>
		</g>
	</g>
	<g>
		<rect x="219.2" y="57.7" class="st2" width="0.8" height="6.4"/>
	</g>
	<g>
		<rect x="221" y="57.7" class="st2" width="8.1" height="0.8"/>
	</g>
	<g>
		<rect x="221" y="60.7" class="st2" width="6.5" height="0.8"/>
	</g>
	<g>
		<rect x="221" y="63.4" class="st2" width="4.8" height="0.8"/>
	</g>
</g>
<g>
	<g>
		<g>
			<g>
				<path class="st1" d="M383.3,67.2H367c-0.8,0-1.4-0.7-1.4-1.4V54.1c0-0.8,0.7-1.4,1.4-1.4h16.4c0.8,0,1.4,0.7,1.4,1.4v11.6
					C384.8,66.5,384.1,67.2,383.3,67.2z M367,53.5c-0.3,0-0.6,0.2-0.6,0.6v11.6c0,0.3,0.2,0.6,0.6,0.6h16.3c0.4,0,0.7-0.3,0.7-0.6
					V54.1c0-0.3-0.2-0.6-0.6-0.6C383.4,53.5,367,53.5,367,53.5z"/>
			</g>
		</g>
	</g>
	<g>
		<g>
			<path class="st2" d="M381.6,55.3v3.5h-13.1v-3.5H381.6 M381.9,54.6h-14v4.7h14.4V55C382.4,54.9,382.2,54.6,381.9,54.6L381.9,54.6
				z"/>
		</g>
	</g>
	<g>
		<g>
			<path class="st2" d="M374.2,60.8v3.5h-5.7v-3.5H374.2 M374.7,60.3h-6.8V65h6.9v-4.6C374.8,60.3,374.7,60.3,374.7,60.3L374.7,60.3
				z"/>
		</g>
	</g>
	<g>
		<g>
			<rect x="375.9" y="60.3" class="st2" width="6.3" height="0.7"/>
		</g>
	</g>
	<g>
		<g>
			<rect x="375.9" y="61.8" class="st2" width="6.3" height="0.7"/>
		</g>
	</g>
	<g>
		<g>
			<rect x="375.9" y="63.5" class="st2" width="2.2" height="0.7"/>
		</g>
	</g>
</g>
<g>
	<g>
		<path class="st2" d="M467.2,52.5c0.8,0,1.5,0.5,1.9,1.5c0.7,2.3,1.3,4.5,2.2,7.1c0.5-1.4,0.8-2.7,1.2-3.9c0.4-1.1,0.7-2.3,1-3.4
			c0.3-0.8,0.8-1.3,1.8-1.3l0,0c1,0,1.5,0.5,1.9,1.3c0.6,2,1.2,3.8,1.9,5.8c0.1,0.4,0.3,0.8,0.5,1.4c0.7-2.5,1.4-4.7,2.2-7
			c0.3-0.8,0.7-1.5,1.6-1.6c0.1,0,0.1,0,0.2,0c1.3,0,2.2,1,1.8,2.3c-1.1,3.5-2.5,6.9-3.7,10.4c-0.1,0.3-0.3,0.5-0.4,0.7
			c-0.4,0.5-1,0.7-1.6,0.7c-0.8,0-1.6-0.5-2-1.3c-0.7-1.9-1.2-3.7-1.9-5.6c-0.1-0.2-0.1-0.4-0.3-0.8c-0.7,2.2-1.3,4.2-2.1,6.2
			c-0.3,1-1.1,1.5-2,1.5c-0.3,0-0.6-0.1-0.9-0.2c-0.5-0.3-1.1-0.8-1.3-1.3c-1.2-3.3-2.5-6.6-3.6-10c-0.4-1.3,0-2.2,1-2.5
			C466.8,52.7,467,52.5,467.2,52.5 M467.2,51.8L467.2,51.8c-0.3,0-0.6,0-0.8,0.1c-0.7,0.2-1.2,0.6-1.5,1.1c-0.2,0.4-0.4,1.2,0,2.4
			c1.2,3.7,2.5,6.9,3.6,10c0.3,0.7,0.9,1.4,1.6,1.8c0.4,0.2,0.8,0.3,1.2,0.3c1.2,0,2.3-0.8,2.7-2.1c0.4-1.3,0.8-2.6,1.3-3.9
			c0,0.1,0.1,0.2,0.1,0.3c0.4,1.2,0.8,2.6,1.3,3.9c0.4,1.1,1.4,1.9,2.7,1.9c0.8,0,1.6-0.3,2.2-1c0.3-0.3,0.5-0.6,0.6-0.9l0.7-2.2
			c0.9-2.7,2-5.6,2.9-8.3c0.3-0.8,0.2-1.6-0.3-2.3c-0.5-0.6-1.2-1-2.2-1c-0.1,0-0.2,0-0.2,0c-1.8,0.1-2.3,1.6-2.4,2.2
			c-0.4,1.5-0.9,3.1-1.4,4.6v-0.1c-0.5-1.6-1-3.2-1.5-4.8c-0.4-1.2-1.2-2-2.6-2c-0.9,0-2.1,0.3-2.6,1.9c-0.2,0.6-0.4,1.3-0.6,2
			c-0.1,0.5-0.3,0.9-0.4,1.4c-0.2,0.5-0.3,1-0.5,1.5c-0.5-1.6-0.9-3.2-1.4-4.7C469.4,52.5,468.4,51.8,467.2,51.8L467.2,51.8
			L467.2,51.8z"/>
	</g>
</g>
<g>
	<g>
		<g>
			<g>
				<g>
					<path class="st1" d="M324.3,53.1c-2,0-3.7,0.5-5.3,1.2c0,0,0,0-0.1,0c-3.5,2-5.9,5.7-5.9,10c0,0.9,0.2,2,0.3,2.9h21.8
						c0.2-0.9,0.3-1.9,0.3-2.9C335.6,58.2,330.5,53.1,324.3,53.1z M334.5,66.4H327c0-0.7-0.3-1.2-0.8-1.8l1.5-5.3
						c0.1-0.3-0.1-0.6-0.3-0.7c-0.3-0.2-0.6,0-0.8,0.3c-0.1,0.2-1.8,3.2-2.9,5.1c-1,0.3-1.9,1.2-2,2.3h-7.6
						c-0.1-0.7-0.2-1.3-0.2-2.1c0-0.3,0-0.6,0.1-0.9c0.2,0.2,0.3,0.2,0.4,0.2h1.3c0.4,0,0.7-0.3,0.7-0.7v-0.1c0-0.4-0.3-0.7-0.7-0.7
						h-1.3c-0.1,0-0.2,0-0.3,0.1c0.2-1.1,0.6-2.2,1.2-3.1l0.9,0.5c0.3,0.2,0.8,0,0.9-0.3v-0.1c0.2-0.3,0-0.8-0.3-0.9l-0.7-0.3
						c0.6-0.8,1.4-1.5,2.3-2.1l0.8,0.9c0.2,0.2,0.4,0.2,0.6,0l0.3-0.3c0.2-0.2,0.2-0.5,0.1-0.6l-0.5-0.9c1.1-0.5,2.4-0.9,3.7-0.9v1
						c0,0.2,0.2,0.4,0.5,0.3h0.5c0.3,0,0.5-0.2,0.5-0.4l-0.1-1c1.3,0,2.6,0.3,3.6,0.9l-0.5,0.5c-0.2,0.2-0.1,0.4,0.1,0.6l0.3,0.3
						c0.2,0.2,0.5,0.2,0.6,0l0.8-0.9c0.9,0.5,1.6,1.2,2.3,2.1l-0.9,0.4c-0.2,0.1-0.3,0.3-0.2,0.6l0.2,0.7c0.2,0.3,0.3,0.3,0.5,0.3
						l1.2-0.5c0.5,0.9,0.9,2,1.2,3.1c-0.1,0-0.2-0.1-0.3-0.1h-1.2c-0.4,0-0.7,0.3-0.7,0.7v0.1c0,0.4,0.3,0.7,0.7,0.7h1.3
						c0.2,0,0.3-0.1,0.5-0.2c0,0.3,0.1,0.6,0.1,0.9C334.7,65.1,334.6,65.8,334.5,66.4z"/>
				</g>
			</g>
		</g>
	</g>
	<path class="st2" d="M326.2,64.6l1.5-5.3c0.1-0.3-0.1-0.6-0.3-0.7c-0.3-0.2-0.6,0-0.8,0.3c-0.1,0.2-1.8,3.2-2.9,5.1
		c-1,0.3-1.8,1.2-2,2.2h5.2C327,65.7,326.7,65.2,326.2,64.6z"/>
</g>
</svg>
