<svg xmlns="http://www.w3.org/2000/svg" xmlns:xlink="http://www.w3.org/1999/xlink" viewBox="0 0 20 60" xmlns:v="https://vecta.io/nano"><use xlink:href="#B" fill="#fff"/><path d="M10 1.5c4.7 0 8.5 3.8 8.5 8.5s-3.8 8.5-8.5 8.5-8.5-3.8-8.5-8.5S5.3 1.5 10 1.5m0-1C4.8.5.5 4.8.5 10s4.3 9.5 9.5 9.5 9.5-4.3 9.5-9.5S15.2.5 10 .5h0z" fill="#c2c2c2"/><path d="M10 14.8c-2.7 0-4.8-2.2-4.8-4.8S7.4 5.3 10 5.3s4.8 2.2 4.8 4.8-2.1 4.7-4.8 4.7z" fill="#efefef"/><path d="M10,5.7c2.4,0,4.3,1.9,4.3,4.3s-1.9,4.3-4.3,4.3S5.7,12.4,5.7,10S7.6,5.7,10,5.7 M10,4.7 c-2.9,0-5.3,2.4-5.3,5.3s2.4,5.3,5.3,5.3s5.3-2.4,5.3-5.3S12.9,4.7,10,4.7L10,4.7z" fill="#c2c2c2"/><use xlink:href="#B" y="20" fill="#fff"/><path d="M10 21.5c4.7 0 8.5 3.8 8.5 8.5s-3.8 8.5-8.5 8.5-8.5-3.8-8.5-8.5 3.8-8.5 8.5-8.5m0-1C4.8 20.5.5 24.8.5 30s4.3 9.5 9.5 9.5 9.5-4.3 9.5-9.5-4.3-9.5-9.5-9.5h0z" fill="#f36d30"/><path d="M5.3 28.4l4.7 4.4 8.4-10.9" fill="none" stroke="#f36d30" stroke-width="2.815" stroke-miterlimit="10"/><use xlink:href="#B" y="40" fill="#fff"/><path d="M10 41.5c4.7 0 8.5 3.8 8.5 8.5s-3.8 8.5-8.5 8.5-8.5-3.8-8.5-8.5 3.8-8.5 8.5-8.5m0-1C4.8 40.5.5 44.8.5 50s4.3 9.5 9.5 9.5 9.5-4.3 9.5-9.5-4.3-9.5-9.5-9.5h0z" fill="#ea272b"/><g fill="none" stroke-miterlimit="10" stroke="#ea272b" stroke-width="2.111"><path d="M13.9 46.2l-7.5 7.6"/><path d="M6.1 46.2l7.5 7.6"/></g><defs ><path id="B" d="M10 18.9c-4.9 0-8.9-4-8.9-8.9s4-8.9 8.9-8.9 8.9 4 8.9 8.9-4 8.9-8.9 8.9z"/></defs></svg>